<svg width="140" height="46" xmlns="http://www.w3.org/2000/svg"><title>ESR</title><g fill="#FEFEFE" fill-rule="evenodd"><path d="M35.35 5.606c-5.416 1.21-9.732 3.546-13.635 6.75-3.165 2.4-5.534 5.363-5.534 5.363l13.85-3.972-6.293-.896a25.602 25.602 0 0 1 6.684-2.853c11.995-3.181 17.431 1.654 16.3 9.152l-.005.014C45.284 28.67 36.056 39.08 20.91 42.186 8.258 44.78-1.244 39.313.192 29.806H.179c-1.724 11.442 9.175 17.973 24.344 14.588 15.17-3.385 28.87-15.403 30.595-26.843l-.003-.012C56.55 8.033 47.953 2.792 35.35 5.606"/><path d="M21.79 39.682c5.416-1.21 9.732-3.546 13.636-6.751 3.164-2.4 5.533-5.362 5.533-5.362l-13.85 3.972 6.293.896a25.602 25.602 0 0 1-6.684 2.853c-11.995 3.18-17.431-1.654-16.3-9.152l.005-.014c1.435-9.506 10.662-19.917 25.809-23.022 12.65-2.594 22.152 2.873 20.717 12.38h.012C58.685 4.04 47.787-2.491 32.617.894 17.447 4.279 3.747 16.297 2.023 27.737l.002.012C.59 37.255 9.188 42.496 21.79 39.682"/><path d="M21.275 20.454l-.216 1.363h2.39l-.284 1.795h-2.39l-.223 1.406h2.519l-.284 1.795h-4.64l1.293-8.154h4.639l-.285 1.795zm8.257.303a1.91 1.91 0 0 0-1.32-.54c-.39 0-.945.226-1.017.681-.075.475.469.66.818.778l.515.162c1.082.335 1.868.91 1.659 2.228-.13.811-.455 1.643-1.191 2.195-.724.541-1.614.768-2.436.768a4.382 4.382 0 0 1-2.72-.93l1.18-1.709c.457.465 1.024.844 1.748.844.498 0 1.067-.249 1.158-.822.094-.594-.706-.8-1.14-.93-1.27-.378-2.091-.724-1.841-2.304.262-1.654 1.612-2.735 3.245-2.735.822 0 1.787.26 2.446.67l-1.104 1.644zm4.058 1.557h.205c.691 0 1.491-.13 1.631-1.016.141-.887-.618-1.017-1.31-1.017h-.205l-.322 2.033zm3.948 4.5H34.9l-1.504-3.137h-.022l-.497 3.136h-2.119l1.291-8.154h3.17c1.61 0 2.711.768 2.435 2.51-.178 1.124-.96 2.097-2.15 2.302l2.035 3.342z"/><path d="M21.275 20.454l-.216 1.363h2.39l-.284 1.795h-2.39l-.223 1.406h2.519l-.284 1.795h-4.64l1.293-8.154h4.639l-.285 1.795zm8.257.303a1.91 1.91 0 0 0-1.32-.54c-.39 0-.945.226-1.017.681-.075.475.469.66.818.778l.515.162c1.082.335 1.868.91 1.659 2.228-.13.811-.455 1.643-1.191 2.195-.724.541-1.614.768-2.436.768a4.382 4.382 0 0 1-2.72-.93l1.18-1.709c.457.465 1.024.844 1.748.844.498 0 1.067-.249 1.158-.822.094-.594-.706-.8-1.14-.93-1.27-.378-2.091-.724-1.841-2.304.262-1.654 1.612-2.735 3.245-2.735.822 0 1.787.26 2.446.67l-1.104 1.644zm4.058 1.557h.205c.691 0 1.491-.13 1.631-1.016.141-.887-.618-1.017-1.31-1.017h-.205l-.322 2.033zm3.948 4.5H34.9l-1.504-3.137h-.022l-.497 3.136h-2.119l1.291-8.154h3.17c1.61 0 2.711.768 2.435 2.51-.178 1.124-.96 2.097-2.15 2.302l2.035 3.342zm28.929-15.646l-.222 1.4h2.457l-.292 1.847h-2.457l-.229 1.445h2.59l-.292 1.845h-4.77l1.328-8.383h4.77l-.292 1.846zM77.83 8.532l.69 9.174h-1.403l-.376-5.345-3.248 5.935-1.797-5.935-1.674 5.345h-1.27l2.9-8.973 2.124 6.85zm4.455 1.978l-.336 2.704h.809c.51 0 .902-.129 1.176-.39.273-.26.41-.635.41-1.127 0-.792-.511-1.188-1.532-1.188h-.527zm-1.143-1.196h1.7c.739 0 1.302.124 1.689.37.319.2.568.481.749.843.182.374.272.767.272 1.181 0 .602-.168 1.131-.505 1.588-.5.678-1.287 1.017-2.362 1.017h-.918l-.42 3.392h-1.243l1.038-8.39zm7.296 1.196l-.326 2.693h.57c.42 0 .734-.04.94-.12.221-.079.406-.215.554-.407a1.52 1.52 0 0 0 .304-.945c0-.424-.122-.733-.367-.929-.244-.195-.629-.293-1.154-.293h-.521zm1.138 3.657l2.107 3.538h-1.314l-1.988-3.449h-.451l-.424 3.45h-1.243l1.032-8.392h1.646c.535 0 .961.05 1.276.147.311.091.583.257.814.5.439.45.658 1.03.658 1.74 0 1.3-.705 2.122-2.113 2.466zm8.703-4.852l-.141 1.194h-3.08l-.266 2.115h3.08l-.131 1.098h-3.08l-.347 2.789h3.08l-.147 1.195h-4.141l.9-8.391zm5.965 1.27l-.831.793c-.395-.579-.847-.869-1.358-.869-.37 0-.675.11-.918.326a1.05 1.05 0 0 0-.364.817c0 .263.084.488.25.678.083.09.205.192.367.305.16.114.362.24.605.378.72.4 1.2.762 1.444 1.086.246.328.369.757.369 1.288 0 .69-.231 1.25-.693 1.676-.46.428-1.075.642-1.846.642-.623 0-1.15-.138-1.58-.413a2.695 2.695 0 0 1-.61-.538 5.012 5.012 0 0 1-.542-.792l.945-.64c.257.452.509.763.755.933.246.17.567.255.962.255.438 0 .78-.11 1.029-.33.248-.22.372-.535.372-.94 0-.28-.091-.516-.272-.71-.09-.1-.225-.212-.404-.336a8.871 8.871 0 0 0-.681-.418c-.63-.355-1.07-.693-1.32-1.014-.24-.32-.358-.722-.358-1.204 0-.644.227-1.179.683-1.603.459-.427 1.046-.64 1.764-.64.466 0 .865.096 1.195.288.336.193.682.52 1.037.982m2.955 4.072h2.368l-.902-2.982-1.466 2.982zm-.538 1.099l-1.021 1.95h-1.352l4.638-8.982 2.895 8.982h-1.298l-.608-1.95h-3.254zm-37.82 7.324a1.963 1.963 0 0 0-1.356-.555c-.401 0-.972.233-1.046.7-.077.49.483.679.84.8l.53.168c1.114.345 1.92.934 1.706 2.29-.133.834-.469 1.69-1.225 2.257-.745.556-1.66.789-2.505.789a4.502 4.502 0 0 1-2.794-.956l1.212-1.756c.468.478 1.052.867 1.797.867.511 0 1.097-.256 1.19-.845.097-.612-.725-.823-1.171-.956-1.306-.39-2.15-.745-1.894-2.368.27-1.702 1.657-2.813 3.337-2.813.844 0 1.837.267 2.514.689l-1.135 1.69zm8.789 1.868c0-.861-.272-1.55-.816-2.067-.544-.514-1.275-.77-2.193-.77-.921 0-1.695.289-2.323.867-.62.579-.93 1.302-.93 2.169 0 .857.288 1.567.865 2.128.576.558 1.304.837 2.186.837.918 0 1.681-.301 2.291-.903.613-.595.92-1.349.92-2.261m1.208.009c0 .92-.251 1.755-.754 2.504a4.02 4.02 0 0 1-1.563 1.365 4.722 4.722 0 0 1-2.133.481c-1.247 0-2.263-.385-3.05-1.156-.785-.773-1.18-1.774-1.18-3 0-1.224.418-2.234 1.25-3.033.838-.801 1.894-1.202 3.168-1.202 1.276 0 2.305.371 3.088 1.114.782.739 1.174 1.714 1.174 2.927m8.134-3.102l-.168 1.364c-.728-.739-1.596-1.108-2.602-1.108-.886 0-1.603.296-2.15.887-.552.59-.827 1.356-.827 2.302 0 .884.266 1.575.794 2.072.524.493 1.267.74 2.227.74.8 0 1.507-.246 2.118-.739l-.18 1.493c-.77.294-1.49.441-2.156.441-1.217 0-2.195-.372-2.934-1.114-.718-.735-1.076-1.715-1.076-2.938 0-1.248.382-2.283 1.144-3.105.792-.823 1.787-1.234 2.985-1.234.945 0 1.887.313 2.825.94m2.874-.94l-1.032 8.39h-1.208l1.002-8.39zm3.228 5.342h2.368l-.902-2.982-1.466 2.982zm-.538 1.099l-1.02 1.95h-1.353l4.638-8.982 2.895 8.982h-1.298l-.608-1.95h-3.254zm8.406-6.441l-.885 7.196h2.373l-.14 1.195h-3.618l1.031-8.391zm11.048-.783l.69 9.174h-1.405l-.375-5.345-3.248 5.935-1.798-5.935-1.673 5.345h-1.27l2.9-8.973 2.123 6.85zm7.625.783l-.141 1.195h-3.08l-.266 2.115h3.08l-.131 1.098h-3.08l-.347 2.788h3.08l-.147 1.195h-4.141l.9-8.391zm8.725 0l-1.098 8.968-5.09-6.498-.727 5.92h-1.209l1.061-8.843 5.085 6.482.74-6.03zm4.162 1.194l-.89 7.197h-1.209l.865-7.196h-1.979l.142-1.195h5.13l-.142 1.195zM140 20.916l-.141 1.195h-3.08l-.266 2.115h3.08l-.131 1.098h-3.079l-.348 2.788h3.08l-.147 1.195h-4.141l.9-8.391zM66.164 36.283h.211c.712 0 1.534-.133 1.678-1.045.144-.912-.635-1.045-1.347-1.045h-.21l-.332 2.09zm4.06 4.625H67.51l-1.546-3.224h-.022l-.51 3.224h-2.18l1.328-8.383h3.258c1.656 0 2.788.79 2.504 2.58-.183 1.156-.986 2.156-2.209 2.368l2.09 3.435zm5.875-8.391l-.142 1.195h-3.08l-.265 2.115h3.08l-.131 1.098h-3.08l-.347 2.788h3.08l-.147 1.195h-4.141l.9-8.39zm5.964 1.271l-.831.793c-.395-.579-.847-.869-1.358-.869-.369 0-.675.11-.918.326-.242.217-.364.49-.364.817 0 .263.084.488.25.678.083.09.206.192.367.305.161.114.363.24.605.378.72.4 1.202.762 1.444 1.086.246.328.369.757.369 1.288 0 .69-.231 1.25-.693 1.676-.459.428-1.074.642-1.845.642-.624 0-1.15-.137-1.581-.413a2.717 2.717 0 0 1-.609-.538 5.012 5.012 0 0 1-.543-.792l.945-.64c.257.452.509.763.755.933.247.17.567.255.962.255.438 0 .781-.11 1.029-.33.248-.22.372-.535.372-.94 0-.28-.091-.516-.271-.71a2.42 2.42 0 0 0-.405-.336 8.871 8.871 0 0 0-.681-.418c-.63-.355-1.07-.693-1.32-1.014-.239-.32-.358-.722-.358-1.204 0-.644.228-1.179.683-1.603.459-.427 1.047-.64 1.764-.64.467 0 .865.096 1.195.288.337.193.682.52 1.037.982m2.992-.076l-.337 2.705h.809c.511 0 .903-.129 1.176-.39.274-.26.411-.635.411-1.126 0-.793-.511-1.189-1.532-1.189h-.527zm-1.143-1.195h1.7c.738 0 1.301.124 1.689.37.319.2.568.481.75.843.181.374.271.767.271 1.181a2.61 2.61 0 0 1-.505 1.588c-.5.678-1.287 1.017-2.363 1.017h-.918l-.418 3.392h-1.243l1.037-8.39zm12.756 4.033c0-.862-.272-1.55-.816-2.068-.544-.513-1.275-.77-2.193-.77-.92 0-1.695.29-2.323.867-.62.58-.93 1.302-.93 2.17 0 .856.288 1.566.865 2.127.577.558 1.306.837 2.187.837.917 0 1.681-.3 2.291-.903.613-.595.92-1.349.92-2.26m1.207.008c0 .92-.25 1.755-.754 2.504a4.02 4.02 0 0 1-1.562 1.365 4.708 4.708 0 0 1-2.133.481c-1.247 0-2.263-.385-3.049-1.156-.787-.773-1.18-1.774-1.18-3 0-1.224.416-2.234 1.25-3.033.836-.8 1.892-1.202 3.167-1.202s2.304.371 3.087 1.114c.783.74 1.174 1.714 1.174 2.927m9.221-4.041L106 41.485l-5.09-6.498-.727 5.921h-1.21l1.062-8.844 5.085 6.482.738-6.029zm6.383 1.271l-.832.793c-.395-.579-.847-.869-1.358-.869-.369 0-.675.11-.918.326a1.05 1.05 0 0 0-.364.817c0 .263.084.488.25.678.083.09.205.192.367.305.161.114.362.24.605.378.72.4 1.201.762 1.444 1.086.246.328.37.757.37 1.288 0 .69-.232 1.25-.694 1.676-.459.428-1.075.642-1.846.642-.623 0-1.15-.137-1.58-.413a2.695 2.695 0 0 1-.609-.538 5.012 5.012 0 0 1-.543-.792l.945-.64c.257.452.51.763.755.933.246.17.567.255.962.255.438 0 .781-.11 1.03-.33.247-.22.371-.535.371-.94 0-.28-.09-.516-.272-.71-.09-.1-.225-.212-.404-.336a8.871 8.871 0 0 0-.68-.418c-.63-.355-1.07-.693-1.32-1.014-.24-.32-.359-.722-.359-1.204 0-.644.227-1.179.683-1.603.46-.427 1.046-.64 1.764-.64.466 0 .865.096 1.195.288.336.193.682.52 1.037.982m2.955 4.072h2.368l-.902-2.983-1.466 2.982zm-.538 1.098l-1.02 1.95h-1.353l4.638-8.982 2.895 8.982h-1.298l-.608-1.95h-3.254zm8.308-5.246l-.304 2.472h.353c1.065 0 1.597-.489 1.597-1.466 0-.67-.406-1.006-1.217-1.006h-.43zm-.465 3.378l-.32 2.623h.85c.632 0 1.066-.079 1.3-.238.36-.24.542-.64.542-1.198 0-.21-.031-.39-.091-.54a.868.868 0 0 0-.284-.37 1.284 1.284 0 0 0-.5-.21 3.55 3.55 0 0 0-.736-.067h-.761zm-.533-4.573h1.497c.47 0 .854.053 1.147.158.287.105.53.283.73.532.319.395.478.872.478 1.43 0 .848-.407 1.494-1.222 1.94.989.246 1.483.866 1.483 1.858 0 .41-.087.796-.261 1.158a2.17 2.17 0 0 1-.681.87 1.897 1.897 0 0 1-.77.353 4.876 4.876 0 0 1-.53.068 9.64 9.64 0 0 1-.734.024h-2.132l.995-8.39zm7.573 0l-.885 7.196h2.373l-.141 1.195h-3.617l1.03-8.39zm7.87 0l-.141 1.195h-3.08l-.266 2.115h3.08l-.131 1.098h-3.08l-.347 2.788h3.08l-.147 1.195h-4.141l.9-8.39z"/></g></svg>