<svg width="200" height="42" xmlns="http://www.w3.org/2000/svg" xmlns:xlink="http://www.w3.org/1999/xlink"><title>LOGO</title><defs><path id="a" d="M47.68.25H0v34.625h47.68z"/><path id="c" d="M0 42h199.588V.25H0z"/></defs><g fill="none" fill-rule="evenodd"><path fill="#ED342E" d="M193.583 7.006h.791v2.686h.544V7.006h.804v-.544h-2.14zm5.485-.544l-.665 2.397-.674-2.397h-.938v3.23h.63l-.063-2.653.747 2.653h.582l.746-2.653-.063 2.653h.63v-3.23zM65.011 20.055c0 .669 0 1.178-.22 1.75-.625 1.687-2.377 1.783-2.846 1.783-.5 0-2.253-.096-2.816-1.814-.25-.7-.219-1.496-.219-1.72V6.017h-7.008v13.338c0 2.356.157 3.28.563 4.393 1.033 2.77 3.285 3.884 4.224 4.298 2.19.987 4.38 1.05 5.193 1.05 3.942 0 7.947-1.56 9.48-5.634.5-1.337.688-2.546.688-3.98V6.017h-7.04v14.039zm18.329.286l2.41-7.926 2.346 7.926H83.34zM81.807 6.016L73.36 28.491h7.508l.97-3.151h7.696l.97 3.15h7.51l-8.26-22.474h-7.947zM114.433 19.1l-7.477-13.084H99.54v22.475h6.508l-.062-13.052 7.351 13.052h7.54V6.016h-6.538zm7.817-7.545h5.63v16.936h6.978V11.555h5.6V6.016h-18.209zm39.728-5.539h-7.038v14.039c0 .669 0 1.178-.22 1.75-.626 1.687-2.378 1.783-2.847 1.783-.5 0-2.252-.096-2.815-1.814-.25-.7-.22-1.497-.22-1.72V6.017h-7.008v13.338c0 2.356.157 3.28.564 4.393 1.032 2.77 3.284 3.884 4.223 4.298 2.19.987 4.38 1.05 5.194 1.05 3.941 0 7.946-1.56 9.48-5.634.5-1.337.687-2.547.687-3.98V6.016zm9.288 6.176l4.349 16.299h5.193l4.412-16.299-.063 16.299h6.664V6.016h-10.012l-3.534 14.135-3.6-14.135h-10.01v22.475h6.632zM30.694 27.87c-5.586 0-10.13-4.624-10.13-10.307 0-5.684 4.544-10.308 10.13-10.308 5.587 0 10.131 4.624 10.131 10.308 0 5.683-4.544 10.308-10.13 10.308M47.68 17.563C47.68 8.033 40.06.28 30.694.28 21.33.28 13.71 8.033 13.71 17.563c0 9.53 7.62 17.282 16.985 17.282 2.276 0 4.447-.46 6.433-1.29 2.33 1.876 6.047 4.002 10.934 4.002V30.59c-1.952 0-3.607-.572-4.915-1.288a17.379 17.379 0 0 0 4.534-11.738"/><mask id="b" fill="#fff"><use xlink:href="#a"/></mask><path d="M17.015 7.225c-5.602 0-10.16 4.637-10.16 10.338 0 5.7 4.558 10.338 10.16 10.338h13.65c5.602 0 10.16-4.638 10.16-10.338 0-5.7-4.558-10.338-10.16-10.338h-13.65zm13.65 27.65h-13.65C7.633 34.875 0 27.11 0 17.563 0 8.017 7.633.25 17.015.25h13.65c9.382 0 17.015 7.767 17.015 17.313s-7.633 17.312-17.015 17.312z" fill="#ED342E" mask="url(#b)"/><path fill="#ED342E" d="M55.598 39.526v-7.63h5.162v.897h-4.205v2.356h3.653v.886h-3.653v2.605h4.332v.886zm9.705 0v-3.243c0-.151.043-.647-.382-.972-.126-.098-.361-.228-.754-.228-.37 0-.669.12-.935.379a1.31 1.31 0 0 0-.296.465c-.097.238-.097.454-.097.702v2.897h-.85v-5.09h.85v.746a1.75 1.75 0 0 1 .267-.357c.18-.195.614-.551 1.305-.551.224 0 .978.064 1.424.702.33.464.307.961.307 1.512v3.038h-.84zm5.807-3.512c-.17-.628-.701-1.07-1.36-1.07-.902 0-1.349.756-1.423 1.567h2.858a2.577 2.577 0 0 0-.075-.497m.669 2.669c-.254.388-.807 1.005-1.933 1.005-.52 0-.86-.12-1.05-.205-.618-.271-1.404-.963-1.404-2.551 0-.94.308-1.47.564-1.783a2.39 2.39 0 0 1 2.644-.736 2.14 2.14 0 0 1 1.264 1.21c.139.336.244.747.244 1.514h-3.802c-.01.908.414 1.426.722 1.644.256.172.585.258.903.258.457 0 .69-.173.839-.314a1.38 1.38 0 0 0 .277-.335c.127-.226.18-.474.2-.54l.861.12c-.042.108-.138.41-.33.713M75.27 35.3a1.23 1.23 0 0 0-1.006.93c-.076.258-.076.443-.076.939v2.356h-.85v-5.09h.85v.93c.117-.227.266-.421.468-.583.201-.163.594-.412 1.242-.412v.93c-.308-.044-.478-.033-.627 0m5.162.832a1.508 1.508 0 0 0-1.498-1.081c-.223 0-.458.053-.65.151-.403.206-.87.735-.87 1.784 0 .584.139 1.231.626 1.622.277.215.605.301.957.301.511 0 .797-.194.956-.335.307-.28.584-.756.584-1.663a3.12 3.12 0 0 0-.105-.78m.839 4.443c-.277.952-1 1.21-1.339 1.308-.171.043-.457.118-.872.118-.147 0-.457-.01-.84-.118-1.21-.335-1.38-1.308-1.443-1.773h.956c0 .119 0 .422.213.702.359.498.997.486 1.168.486.118 0 .848.012 1.179-.518.19-.314.223-.681.21-1.405l-.009-.583c-.574.799-1.232.897-1.636.897-.508 0-.891-.163-1.051-.248-.541-.292-1.263-.984-1.263-2.433 0-.237.01-1.155.52-1.847.424-.562.944-.886 1.806-.886.127 0 .383.021.68.129.223.087.584.28.954.724v-.691h.884v4.819c0 .691-.012.951-.117 1.319m2.183-6.691h-.436l.436-1.556h.915l-.915 1.556zm-.529 5.642h.818v-5.09h-.818v5.09zm5.309-2.388v-.097c-.394.065-1.393.195-1.784.368-.16.064-.617.28-.617.777 0 .378.277.757.945.757.457 0 1.465-.194 1.465-1.502 0-.098-.01-.205-.01-.303m.945 2.453c-.042 0-.34 0-.529-.129a.76.76 0 0 1-.171-.196c-.139-.194-.148-.323-.169-.431-.235.26-.746.832-1.711.832a2.12 2.12 0 0 1-.692-.108c-.593-.205-1.008-.692-1.008-1.352 0-.237.063-.723.541-1.101.512-.39 1.393-.53 2.03-.573l.765-.055c0-.14 0-.28-.012-.42-.021-.368-.084-1.125-1.104-1.125-.16 0-.827 0-1.029.616-.054.162-.054.282-.054.455l-.881-.055c0-.097.021-.28.084-.498.16-.485.625-1.176 1.838-1.176.147 0 .424.01.785.107.201.055.872.26 1.116.952.096.269.105.53.105 1.09v1.666c0 .107 0 .226.012.335.01.118.021.388.37.388.109 0 .16-.02.255-.042v.723a1.533 1.533 0 0 1-.54.097m7.516-2.453v-.097c-.394.065-1.393.195-1.784.368-.159.064-.616.28-.616.777 0 .378.277.757.944.757.457 0 1.465-.194 1.465-1.502 0-.098-.009-.205-.009-.303m.944 2.453c-.042 0-.34 0-.529-.129a.76.76 0 0 1-.171-.196c-.139-.194-.148-.323-.169-.431-.234.26-.746.832-1.711.832a2.12 2.12 0 0 1-.692-.108c-.592-.205-1.008-.692-1.008-1.352 0-.237.063-.723.541-1.101.512-.39 1.393-.53 2.03-.573l.765-.055c0-.14 0-.28-.012-.42-.02-.368-.084-1.125-1.104-1.125-.16 0-.827 0-1.032.616-.051.162-.051.282-.051.455l-.881-.055c0-.097.021-.28.084-.498.16-.485.626-1.176 1.838-1.176.147 0 .424.01.785.107.202.055.872.26 1.116.952.096.269.105.53.105 1.09v1.666c0 .107 0 .226.012.335.01.118.021.388.37.388.109 0 .16-.02.256-.042v.723a1.537 1.537 0 0 1-.542.097m5.385-3.48c-.118-.325-.5-1.07-1.498-1.027a1.537 1.537 0 0 0-.785.25c-.352.237-.756.756-.756 1.74 0 .702.202 1.069.394 1.33.14.171.32.312.52.398.115.054.33.131.66.131.73 0 1.04-.325 1.221-.585.37-.529.37-1.189.37-1.383 0-.107 0-.497-.126-.854m.457 2.724c-.268.346-.776.854-1.808.854-.243 0-.89-.022-1.444-.498a2.007 2.007 0 0 1-.244-.258v3.014h-.827v-7.51h.827l.013.724c.063-.077.21-.26.424-.422.52-.41 1.146-.464 1.347-.464.512 0 .882.194 1.053.29.52.293 1.2.995 1.2 2.432 0 .282 0 1.124-.541 1.838"/><mask id="d" fill="#fff"><use xlink:href="#c"/></mask><path fill="#ED342E" mask="url(#d)" d="M105.286 39.526h.807v-7.63h-.807zm2.368 0h.818v-5.09h-.818v5.09zm0-6.636h.818v-.995h-.818v.995zm6.018 6.343c-.571.455-1.284.455-1.506.455-.148 0-.542 0-.945-.152-.608-.216-1.54-.896-1.54-2.517.009-1.633.881-2.357 1.52-2.595.402-.15.742-.15.91-.15 1.33 0 1.934.734 2.17 1.253.071.162.104.28.137.455l-.935.085c-.021-.085-.063-.356-.214-.594-.349-.552-.944-.573-1.146-.573-.764 0-1.51.518-1.51 2.064 0 .897.29 1.405.575 1.686.289.27.617.367.999.367.222 0 .436-.032.637-.13.553-.247.692-.745.777-1.285l.91.086c-.134.854-.57 1.33-.839 1.545m4.939-2.096v-.097c-.394.065-1.392.195-1.783.368-.16.064-.617.28-.617.777 0 .378.277.757.944.757.458 0 1.466-.194 1.466-1.502 0-.098-.01-.205-.01-.303m.945 2.453c-.042 0-.34 0-.53-.129a.76.76 0 0 1-.171-.196c-.138-.194-.147-.323-.169-.431-.234.26-.745.832-1.711.832a2.1 2.1 0 0 1-.691-.108c-.593-.205-1.008-.692-1.008-1.352 0-.237.063-.723.54-1.101.512-.39 1.393-.53 2.031-.573l.764-.055c0-.14 0-.28-.011-.42-.022-.368-.085-1.125-1.105-1.125-.159 0-.827 0-1.031.616-.052.162-.052.282-.052.455l-.88-.055c0-.097.02-.28.083-.498.16-.485.626-1.176 1.839-1.176.146 0 .424.01.784.107.202.055.873.26 1.116.952.097.269.106.53.106 1.09v1.666c0 .107 0 .226.012.335.01.118.02.388.37.388.108 0 .159-.02.255-.042v.723a1.535 1.535 0 0 1-.541.097m5.209-3.275c-.168-.734-.722-1.242-1.473-1.253-.226 0-.755.032-1.158.53-.34.41-.428.886-.428 1.404 0 .194-.009.843.386 1.373.403.53.932.55 1.176.55.297 0 .574-.063.809-.215.37-.237.763-.756.755-1.73 0-.096 0-.388-.067-.659zm.046 3.21v-.648c-.256.303-.725.811-1.712.811-.956 0-1.444-.465-1.687-.768-.289-.346-.617-.93-.617-1.956 0-.649.117-1.253.508-1.783a2.139 2.139 0 0 1 1.784-.907c.713 0 1.212.335 1.426.508.126.107.201.194.298.323v-3.21h.848v7.63h-.848zm5.351-2.388v-.097c-.394.065-1.393.195-1.784.368-.16.064-.617.28-.617.777 0 .378.277.757.945.757.457 0 1.465-.194 1.465-1.502 0-.098-.01-.205-.01-.303m.945 2.453c-.042 0-.34 0-.53-.129a.76.76 0 0 1-.17-.196c-.14-.194-.148-.323-.17-.431-.234.26-.745.832-1.71.832a2.1 2.1 0 0 1-.692-.108c-.593-.205-1.008-.692-1.008-1.352 0-.237.063-.723.541-1.101.512-.39 1.393-.53 2.03-.573l.765-.055c0-.14 0-.28-.012-.42-.021-.368-.085-1.125-1.104-1.125-.16 0-.827 0-1.032.616-.051.162-.051.282-.051.455l-.881-.055c0-.097.02-.28.084-.498.16-.485.626-1.176 1.838-1.176.147 0 .424.01.785.107.201.055.872.26 1.116.952.096.269.105.53.105 1.09v1.666c0 .107 0 .226.012.335.009.118.021.388.37.388.108 0 .16-.02.255-.042v.723a1.533 1.533 0 0 1-.54.097m7.516-2.453v-.097c-.394.065-1.393.195-1.784.368-.16.064-.617.28-.617.777 0 .378.278.757.945.757.457 0 1.465-.194 1.465-1.502 0-.098-.01-.205-.01-.303m.945 2.453c-.042 0-.34 0-.529-.129a.764.764 0 0 1-.172-.196c-.138-.194-.147-.323-.168-.431-.234.26-.746.832-1.711.832a2.12 2.12 0 0 1-.692-.108c-.592-.205-1.008-.692-1.008-1.352 0-.237.063-.723.541-1.101.512-.39 1.393-.53 2.03-.573l.765-.055c0-.14 0-.28-.012-.42-.021-.368-.084-1.125-1.104-1.125-.16 0-.827 0-1.029.616-.054.162-.054.282-.054.455l-.882-.055c0-.097.021-.28.085-.498.16-.485.626-1.176 1.838-1.176.147 0 .424.01.784.107.202.055.873.26 1.117.952.096.269.105.53.105 1.09v1.666c0 .107 0 .226.012.335.01.118.021.388.37.388.108 0 .16-.02.255-.042v.723a1.535 1.535 0 0 1-.54.097m5.783.021c-.478 0-.722-.117-.848-.312-.129-.194-.117-.4-.117-.843v-3.307h-.81v-.713h.81v-1.611h.87v1.61h.904v.714h-.904v2.918c0 .357-.022.562.065.713.063.118.168.152.307.152.096 0 .298-.034.532-.12v.714c-.066.01-.477.085-.809.085m5.291-.085l-.012-.778c-.041.065-.096.14-.21.259-.406.41-.915.649-1.489.649-.18 0-.957-.032-1.339-.67-.286-.487-.253-1.038-.253-1.567v-2.983h.84v2.895c0 .54 0 .779.114 1.027.108.216.373.487.915.487.192 0 .827-.043 1.19-.583.253-.38.244-.843.244-1.277v-2.549h.828v5.09h-.828zm8.684 0v-3.243c0-.151.042-.647-.382-.972-.13-.098-.361-.228-.755-.228-.373 0-.67.12-.936.379-.063.065-.21.228-.297.465-.097.238-.097.454-.097.702v2.897h-.847v-5.09h.847v.746c.109-.184.214-.303.268-.357.18-.195.617-.551 1.306-.551.222 0 .977.064 1.422.702.331.464.31.961.31 1.512v3.038h-.839zm5.808-3.512c-.171-.628-.7-1.07-1.36-1.07-.904 0-1.35.756-1.425 1.567h2.857a2.725 2.725 0 0 0-.072-.497m.668 2.669c-.256.388-.806 1.005-1.934 1.005-.52 0-.86-.12-1.05-.205-.617-.271-1.401-.963-1.401-2.551 0-.94.306-1.47.562-1.783a2.392 2.392 0 0 1 1.859-.875c.256 0 .55.053.785.14.31.108.923.41 1.263 1.21.138.335.247.746.247 1.513h-3.805c-.01.908.415 1.426.725 1.644.252.172.583.258.902.258.457 0 .69-.173.84-.314a1.38 1.38 0 0 0 .273-.335c.13-.226.183-.474.205-.54l.86.12c-.046.108-.139.41-.331.713m5.191-2.551c-.222-.692-.806-1.091-1.497-1.081-.223 0-.458.053-.647.151-.403.206-.873.735-.873 1.784 0 .584.14 1.231.63 1.622.273.215.604.301.953.301.511 0 .797-.194.956-.335.31-.28.587-.756.587-1.663 0-.099-.012-.466-.109-.78m.84 4.443c-.277.952-.999 1.21-1.339 1.308-.168.043-.457.118-.87.118-.15 0-.456-.01-.838-.118-1.212-.335-1.38-1.308-1.447-1.773h.957c0 .119 0 .422.213.702.361.498.999.486 1.167.486.117 0 .852.012 1.18-.518.191-.314.222-.681.213-1.405l-.012-.583c-.572.799-1.23.897-1.634.897a2.3 2.3 0 0 1-1.052-.248c-.542-.292-1.264-.984-1.264-2.433 0-.237.01-1.155.52-1.847.425-.562.945-.886 1.805-.886.127 0 .383.021.68.129.223.087.584.28.957.724v-.691h.88v4.819c0 .691-.008.951-.116 1.319m5.104-4.895a1.302 1.302 0 0 0-.307-.389 1.348 1.348 0 0 0-.914-.324c-1.603 0-1.594 1.782-1.594 2.075 0 .248.033.442.045.518.05.368.306 1.448 1.498 1.437.232 0 .806-.053 1.188-.638.32-.486.34-1.274.34-1.383.012-.14.012-.799-.256-1.296m.584 3.155c-.274.335-.816.854-1.856.854-.298 0-1.128-.032-1.733-.67-.319-.325-.733-.94-.733-2.011 0-.658.17-1.318.574-1.847.487-.638 1.137-.886 1.922-.886.34 0 .7.064.999.194.583.248 1.434.972 1.413 2.517 0 .282-.033 1.147-.586 1.85m5.552.398c-.571.455-1.284.455-1.507.455-.147 0-.541 0-.944-.152-.608-.216-1.54-.896-1.54-2.517.009-1.633.881-2.357 1.519-2.595.403-.15.742-.15.91-.15 1.33 0 1.935.734 2.17 1.253.072.162.105.28.139.455l-.937.085c-.02-.085-.063-.356-.213-.594-.349-.552-.944-.573-1.146-.573-.764 0-1.51.518-1.51 2.064 0 .897.289 1.405.575 1.686.285.27.616.367.999.367.222 0 .435-.032.637-.13.553-.247.689-.745.776-1.285l.911.086c-.135.854-.571 1.33-.839 1.545m1.997.293h.818v-5.09h-.818v5.09zm0-6.636h.818v-.995h-.818v.995zm5.776 2.789a1.302 1.302 0 0 0-.307-.389 1.348 1.348 0 0 0-.914-.324c-1.604 0-1.594 1.782-1.594 2.075 0 .248.032.442.044.518.051.368.307 1.448 1.498 1.437.232 0 .806-.053 1.188-.638.32-.486.34-1.274.34-1.383.012-.14.012-.799-.255-1.296m.583 3.155c-.274.335-.815.854-1.856.854-.297 0-1.128-.032-1.732-.67-.32-.325-.734-.94-.734-2.011 0-.658.171-1.318.575-1.847.487-.638 1.136-.886 1.921-.886.34 0 .7.064.999.194.583.248 1.435.972 1.414 2.517 0 .282-.034 1.147-.587 1.85"/></g></svg>