<?xml version="1.0" encoding="UTF-8"?>
<svg width="140px" height="46px" viewBox="0 0 140 46" version="1.1" xmlns="http://www.w3.org/2000/svg" xmlns:xlink="http://www.w3.org/1999/xlink">
    <!-- Generator: Sketch 46.1 (44463) - http://www.bohemiancoding.com/sketch -->
    <title>ESR</title>
    <desc>Created with Sketch.</desc>
    <defs></defs>
    <g id="Symbols" stroke="none" stroke-width="1" fill="none" fill-rule="evenodd">
        <g id="Footer" transform="translate(-1057.000000, -128.000000)" fill="#FEFEFE">
            <g id="FOOTER">
                <g id="ESR" transform="translate(1057.000000, 127.000000)">
                    <path d="M35.3495,6.6058 C29.9345,7.8158 25.6185,10.1518 21.7155,13.3568 C18.5505,15.7558 16.1815,18.7188 16.1815,18.7188 L30.0315,14.7468 L23.7385,13.8508 C25.9685,12.5018 28.2405,11.5758 30.4225,10.9978 C42.4175,7.8168 47.8535,12.6518 46.7225,20.1498 L46.7175,20.1638 C45.2825,29.6698 36.0555,40.0808 20.9085,43.1858 C8.2575,45.7798 -1.2435,40.3128 0.1915,30.8058 L0.1795,30.8058 C-1.5445,42.2478 9.3535,48.7788 24.5235,45.3938 C39.6935,42.0088 53.3925,29.9908 55.1175,18.5508 L55.1155,18.5388 C56.5495,9.0328 47.9525,3.7918 35.3495,6.6058" id="Fill-1"></path>
                    <g id="Group-5" transform="translate(1.000000, 0.287400)">
                        <path d="M20.7908,40.3942 C26.2058,39.1842 30.5218,36.8482 34.4258,33.6432 C37.5898,31.2442 39.9588,28.2812 39.9588,28.2812 L26.1088,32.2532 L32.4018,33.1492 C30.1718,34.4982 27.8998,35.4242 25.7178,36.0022 C13.7228,39.1832 8.2868,34.3482 9.4178,26.8502 L9.4228,26.8362 C10.8578,17.3302 20.0848,6.9192 35.2318,3.8142 C47.8828,1.2202 57.3838,6.6872 55.9488,16.1942 L55.9608,16.1942 C57.6848,4.7522 46.7868,-1.7788 31.6168,1.6062 C16.4468,4.9912 2.7478,17.0092 1.0228,28.4492 L1.0248,28.4612 C-0.4092,37.9672 8.1878,43.2082 20.7908,40.3942" id="Fill-3"></path>
                    </g>
                    <polygon id="Fill-6" points="21.2747 21.4544 21.0587 22.8174 23.4487 22.8174 23.1647 24.6124 20.7747 24.6124 20.5517 26.0184 23.0707 26.0184 22.7867 27.8134 18.1477 27.8134 19.4397 19.6594 24.0787 19.6594 23.7937 21.4544"></polygon>
                    <path d="M29.5316,21.7574 C29.1936,21.4334 28.7306,21.2164 28.2116,21.2164 C27.8226,21.2164 27.2666,21.4434 27.1946,21.8984 C27.1196,22.3734 27.6636,22.5574 28.0126,22.6764 L28.5276,22.8384 C29.6096,23.1734 30.3956,23.7474 30.1866,25.0664 C30.0576,25.8774 29.7316,26.7094 28.9956,27.2614 C28.2716,27.8024 27.3816,28.0294 26.5596,28.0294 C25.5316,28.0294 24.5806,27.6834 23.8406,27.0994 L25.0196,25.3904 C25.4766,25.8554 26.0436,26.2344 26.7676,26.2344 C27.2656,26.2344 27.8346,25.9854 27.9256,25.4124 C28.0196,24.8184 27.2196,24.6124 26.7856,24.4824 C25.5156,24.1044 24.6946,23.7584 24.9446,22.1784 C25.2066,20.5244 26.5566,19.4434 28.1896,19.4434 C29.0116,19.4434 29.9766,19.7024 30.6356,20.1134 L29.5316,21.7574 Z" id="Fill-8"></path>
                    <path d="M33.5892,23.3143 L33.7952,23.3143 C34.4862,23.3143 35.2862,23.1843 35.4262,22.2983 C35.5672,21.4113 34.8082,21.2813 34.1162,21.2813 L33.9112,21.2813 L33.5892,23.3143 Z M37.5382,27.8133 L34.8992,27.8133 L33.3952,24.6773 L33.3732,24.6773 L32.8762,27.8133 L30.7572,27.8133 L32.0482,19.6593 L35.2172,19.6593 C36.8282,19.6593 37.9292,20.4273 37.6532,22.1683 C37.4752,23.2933 36.6932,24.2663 35.5032,24.4713 L37.5382,27.8133 L37.5382,27.8133 Z" id="Fill-10"></path>
                    <polygon id="Fill-12" points="21.2747 21.4544 21.0587 22.8174 23.4487 22.8174 23.1647 24.6124 20.7747 24.6124 20.5517 26.0184 23.0707 26.0184 22.7867 27.8134 18.1477 27.8134 19.4397 19.6594 24.0787 19.6594 23.7937 21.4544"></polygon>
                    <path d="M29.5316,21.7574 C29.1936,21.4334 28.7306,21.2164 28.2116,21.2164 C27.8226,21.2164 27.2666,21.4434 27.1946,21.8984 C27.1196,22.3734 27.6636,22.5574 28.0126,22.6764 L28.5276,22.8384 C29.6096,23.1734 30.3956,23.7474 30.1866,25.0664 C30.0576,25.8774 29.7316,26.7094 28.9956,27.2614 C28.2716,27.8024 27.3816,28.0294 26.5596,28.0294 C25.5316,28.0294 24.5806,27.6834 23.8406,27.0994 L25.0196,25.3904 C25.4766,25.8554 26.0436,26.2344 26.7676,26.2344 C27.2656,26.2344 27.8346,25.9854 27.9256,25.4124 C28.0196,24.8184 27.2196,24.6124 26.7856,24.4824 C25.5156,24.1044 24.6946,23.7584 24.9446,22.1784 C25.2066,20.5244 26.5566,19.4434 28.1896,19.4434 C29.0116,19.4434 29.9766,19.7024 30.6356,20.1134 L29.5316,21.7574 Z" id="Fill-14"></path>
                    <path d="M33.5892,23.3143 L33.7952,23.3143 C34.4862,23.3143 35.2862,23.1843 35.4262,22.2983 C35.5672,21.4113 34.8082,21.2813 34.1162,21.2813 L33.9112,21.2813 L33.5892,23.3143 Z M37.5382,27.8133 L34.8992,27.8133 L33.3952,24.6773 L33.3732,24.6773 L32.8762,27.8133 L30.7572,27.8133 L32.0482,19.6593 L35.2172,19.6593 C36.8282,19.6593 37.9292,20.4273 37.6532,22.1683 C37.4752,23.2933 36.6932,24.2663 35.5032,24.4713 L37.5382,27.8133 L37.5382,27.8133 Z" id="Fill-16"></path>
                    <polygon id="Fill-18" points="66.467 12.1678 66.245 13.5688 68.702 13.5688 68.41 15.4148 65.953 15.4148 65.724 16.8598 68.314 16.8598 68.022 18.7048 63.252 18.7048 64.58 10.3218 69.35 10.3218 69.058 12.1678"></polygon>
                    <polygon id="Fill-20" points="77.8305 9.5317 78.5205 18.7057 77.1165 18.7057 76.7415 13.3607 73.4935 19.2957 71.6955 13.3607 70.0225 18.7057 68.7515 18.7057 71.6525 9.7327 73.7765 16.5827"></polygon>
                    <path d="M82.2849,11.5093 L81.9489,14.2143 L82.7579,14.2143 C83.2679,14.2143 83.6599,14.0853 83.9339,13.8243 C84.2069,13.5643 84.3439,13.1893 84.3439,12.6973 C84.3439,11.9053 83.8329,11.5093 82.8119,11.5093 L82.2849,11.5093 Z M81.1419,10.3143 L82.8419,10.3143 C83.5809,10.3143 84.1439,10.4383 84.5309,10.6843 C84.8499,10.8843 85.0989,11.1653 85.2799,11.5273 C85.4619,11.9013 85.5519,12.2943 85.5519,12.7083 C85.5519,13.3103 85.3839,13.8393 85.0469,14.2963 C84.5469,14.9743 83.7599,15.3133 82.6849,15.3133 L81.7669,15.3133 L81.3479,18.7053 L80.1039,18.7053 L81.1419,10.3143 Z" id="Fill-22"></path>
                    <path d="M88.438,11.5093 L88.112,14.2033 L88.682,14.2033 C89.102,14.2033 89.416,14.1633 89.622,14.0833 C89.843,14.0043 90.028,13.8683 90.176,13.6763 C90.379,13.4083 90.48,13.0933 90.48,12.7313 C90.48,12.3073 90.358,11.9983 90.113,11.8023 C89.869,11.6073 89.484,11.5093 88.959,11.5093 L88.438,11.5093 Z M89.576,15.1673 L91.683,18.7053 L90.369,18.7053 L88.381,15.2563 L87.93,15.2563 L87.506,18.7053 L86.263,18.7053 L87.295,10.3143 L88.941,10.3143 C89.476,10.3143 89.902,10.3633 90.217,10.4613 C90.528,10.5523 90.8,10.7183 91.031,10.9613 C91.47,11.4103 91.689,11.9903 91.689,12.7003 C91.689,14.0013 90.984,14.8233 89.576,15.1673 L89.576,15.1673 Z" id="Fill-24"></path>
                    <polygon id="Fill-26" points="98.2789 10.3145 98.1379 11.5095 95.0579 11.5095 94.7919 13.6245 97.8719 13.6245 97.7409 14.7225 94.6619 14.7225 94.3139 17.5105 97.3939 17.5105 97.2469 18.7055 93.1059 18.7055 94.0059 10.3145"></polygon>
                    <path d="M104.2437,11.5852 L103.4127,12.3782 C103.0177,11.7992 102.5657,11.5092 102.0547,11.5092 C101.6857,11.5092 101.3797,11.6182 101.1367,11.8352 C100.8937,12.0522 100.7727,12.3252 100.7727,12.6522 C100.7727,12.9152 100.8567,13.1402 101.0227,13.3302 C101.1057,13.4202 101.2277,13.5222 101.3897,13.6352 C101.5507,13.7492 101.7517,13.8752 101.9947,14.0132 C102.7147,14.4132 103.1957,14.7752 103.4387,15.0992 C103.6847,15.4272 103.8077,15.8562 103.8077,16.3872 C103.8077,17.0772 103.5767,17.6362 103.1147,18.0632 C102.6557,18.4912 102.0397,18.7052 101.2687,18.7052 C100.6457,18.7052 100.1187,18.5672 99.6887,18.2922 C99.4707,18.1542 99.2677,17.9752 99.0797,17.7542 C98.8917,17.5342 98.7107,17.2702 98.5367,16.9622 L99.4817,16.3212 C99.7387,16.7742 99.9907,17.0852 100.2367,17.2552 C100.4827,17.4252 100.8037,17.5102 101.1987,17.5102 C101.6367,17.5102 101.9797,17.4002 102.2277,17.1792 C102.4757,16.9592 102.5997,16.6452 102.5997,16.2392 C102.5997,15.9602 102.5087,15.7242 102.3277,15.5302 C102.2377,15.4302 102.1027,15.3182 101.9237,15.1942 C101.7447,15.0702 101.5177,14.9312 101.2427,14.7762 C100.6127,14.4212 100.1727,14.0832 99.9227,13.7622 C99.6837,13.4422 99.5647,13.0402 99.5647,12.5582 C99.5647,11.9142 99.7917,11.3792 100.2477,10.9552 C100.7067,10.5282 101.2937,10.3142 102.0117,10.3142 C102.4777,10.3142 102.8767,10.4112 103.2067,10.6032 C103.5427,10.7962 103.8887,11.1232 104.2437,11.5852" id="Fill-28"></path>
                    <path d="M107.1988,15.6566 L109.5668,15.6566 L108.6648,12.6746 L107.1988,15.6566 Z M106.6608,16.7556 L105.6398,18.7056 L104.2878,18.7056 L108.9258,9.7236 L111.8208,18.7056 L110.5228,18.7056 L109.9148,16.7556 L106.6608,16.7556 Z" id="Fill-30"></path>
                    <path d="M68.8415,24.0806 C68.4945,23.7476 68.0175,23.5246 67.4845,23.5246 C67.0835,23.5246 66.5135,23.7576 66.4395,24.2256 C66.3615,24.7146 66.9215,24.9036 67.2795,25.0256 L67.8095,25.1926 C68.9225,25.5376 69.7295,26.1266 69.5145,27.4826 C69.3825,28.3166 69.0465,29.1726 68.2895,29.7396 C67.5455,30.2956 66.6305,30.5286 65.7855,30.5286 C64.7295,30.5286 63.7515,30.1736 62.9905,29.5726 L64.2025,27.8166 C64.6715,28.2946 65.2555,28.6836 66.0005,28.6836 C66.5115,28.6836 67.0965,28.4276 67.1905,27.8386 C67.2865,27.2266 66.4645,27.0156 66.0185,26.8826 C64.7125,26.4936 63.8685,26.1376 64.1255,24.5146 C64.3945,22.8126 65.7825,21.7016 67.4615,21.7016 C68.3065,21.7016 69.2985,21.9686 69.9765,22.3906 L68.8415,24.0806 Z" id="Fill-32"></path>
                    <path d="M77.6295,25.948 C77.6295,25.087 77.3575,24.398 76.8135,23.881 C76.2695,23.367 75.5385,23.111 74.6205,23.111 C73.6995,23.111 72.9255,23.4 72.2975,23.978 C71.6775,24.557 71.3675,25.28 71.3675,26.147 C71.3675,27.004 71.6555,27.714 72.2325,28.275 C72.8095,28.833 73.5375,29.112 74.4195,29.112 C75.3365,29.112 76.1005,28.811 76.7105,28.209 C77.3225,27.614 77.6295,26.86 77.6295,25.948 M78.8375,25.957 C78.8375,26.877 78.5865,27.712 78.0835,28.461 C77.6855,29.05 77.1645,29.505 76.5215,29.826 C75.8785,30.146 75.1675,30.307 74.3875,30.307 C73.1415,30.307 72.1255,29.922 71.3385,29.151 C70.5525,28.378 70.1585,27.377 70.1585,26.151 C70.1585,24.927 70.5755,23.917 71.4085,23.118 C72.2455,22.317 73.3015,21.916 74.5765,21.916 C75.8515,21.916 76.8805,22.287 77.6635,23.03 C78.4465,23.769 78.8375,24.744 78.8375,25.957" id="Fill-34"></path>
                    <path d="M86.9725,22.8551 L86.8035,24.2191 C86.0765,23.4801 85.2085,23.1111 84.2025,23.1111 C83.3155,23.1111 82.5985,23.4071 82.0515,23.9981 C81.5005,24.5871 81.2255,25.3541 81.2255,26.3001 C81.2255,27.1841 81.4905,27.8751 82.0185,28.3721 C82.5435,28.8651 83.2865,29.1121 84.2455,29.1121 C85.0465,29.1121 85.7525,28.8661 86.3635,28.3731 L86.1845,29.8661 C85.4135,30.1601 84.6945,30.3071 84.0285,30.3071 C82.8115,30.3071 81.8335,29.9351 81.0945,29.1931 C80.3765,28.4581 80.0175,27.4781 80.0175,26.2551 C80.0175,25.0071 80.3995,23.9721 81.1625,23.1501 C81.9545,22.3271 82.9495,21.9161 84.1475,21.9161 C85.0925,21.9161 86.0345,22.2291 86.9725,22.8551" id="Fill-36"></path>
                    <polygon id="Fill-38" points="89.8461 21.9159 88.8141 30.3069 87.6061 30.3069 88.6081 21.9159"></polygon>
                    <path d="M93.0742,27.258 L95.4422,27.258 L94.5402,24.276 L93.0742,27.258 Z M92.5362,28.357 L91.5152,30.307 L90.1632,30.307 L94.8012,21.325 L97.6962,30.307 L96.3982,30.307 L95.7902,28.357 L92.5362,28.357 Z" id="Fill-40"></path>
                    <polygon id="Fill-42" points="100.9422 21.9159 100.0572 29.1119 102.4302 29.1119 102.2892 30.3069 98.6722 30.3069 99.7032 21.9159"></polygon>
                    <polygon id="Fill-44" points="111.9894 21.1332 112.6794 30.3072 111.2754 30.3072 110.9004 24.9622 107.6524 30.8972 105.8544 24.9622 104.1814 30.3072 102.9104 30.3072 105.8114 21.3342 107.9344 28.1842"></polygon>
                    <polygon id="Fill-46" points="119.6149 21.9159 119.4739 23.1109 116.3939 23.1109 116.1279 25.2259 119.2079 25.2259 119.0769 26.3239 115.9979 26.3239 115.6499 29.1119 118.7299 29.1119 118.5829 30.3069 114.4419 30.3069 115.3419 21.9159"></polygon>
                    <polygon id="Fill-48" points="128.3391 21.9159 127.2421 30.8839 122.1521 24.3859 121.4251 30.3069 120.2161 30.3069 121.2771 21.4629 126.3621 27.9449 127.1011 21.9159"></polygon>
                    <polygon id="Fill-50" points="132.5023 23.1107 131.6113 30.3067 130.4033 30.3067 131.2683 23.1107 129.2893 23.1107 129.4313 21.9157 134.5613 21.9157 134.4193 23.1107"></polygon>
                    <polygon id="Fill-52" points="140 21.9159 139.859 23.1109 136.779 23.1109 136.513 25.2259 139.593 25.2259 139.462 26.3239 136.383 26.3239 136.035 29.1119 139.115 29.1119 138.968 30.3069 134.827 30.3069 135.727 21.9159"></polygon>
                    <path d="M66.1643,37.2831 L66.3753,37.2831 C67.0873,37.2831 67.9093,37.1501 68.0533,36.2381 C68.1973,35.3261 67.4183,35.1931 66.7063,35.1931 L66.4953,35.1931 L66.1643,37.2831 Z M70.2233,41.9081 L67.5103,41.9081 L65.9643,38.6841 L65.9423,38.6841 L65.4313,41.9081 L63.2523,41.9081 L64.5803,33.5251 L67.8383,33.5251 C69.4943,33.5251 70.6263,34.3141 70.3423,36.1041 C70.1593,37.2611 69.3563,38.2611 68.1333,38.4731 L70.2233,41.9081 Z" id="Fill-54"></path>
                    <polygon id="Fill-56" points="76.0985 33.5173 75.9575 34.7123 72.8775 34.7123 72.6115 36.8273 75.6915 36.8273 75.5605 37.9253 72.4815 37.9253 72.1335 40.7133 75.2135 40.7133 75.0665 41.9083 70.9255 41.9083 71.8255 33.5173"></polygon>
                    <path d="M82.063,34.7881 L81.232,35.5811 C80.837,35.0021 80.385,34.7121 79.874,34.7121 C79.505,34.7121 79.199,34.8211 78.956,35.0381 C78.714,35.2551 78.592,35.5281 78.592,35.8551 C78.592,36.1181 78.676,36.3431 78.842,36.5331 C78.925,36.6231 79.048,36.7251 79.209,36.8381 C79.37,36.9521 79.572,37.0781 79.814,37.2161 C80.534,37.6161 81.016,37.9781 81.258,38.3021 C81.504,38.6301 81.627,39.0591 81.627,39.5901 C81.627,40.2801 81.396,40.8391 80.934,41.2661 C80.475,41.6941 79.86,41.9081 79.089,41.9081 C78.465,41.9081 77.939,41.7711 77.508,41.4951 C77.29,41.3571 77.088,41.1781 76.899,40.9571 C76.711,40.7371 76.53,40.4731 76.356,40.1651 L77.301,39.5241 C77.558,39.9771 77.81,40.2881 78.056,40.4581 C78.303,40.6281 78.623,40.7131 79.018,40.7131 C79.456,40.7131 79.799,40.6031 80.047,40.3821 C80.295,40.1621 80.419,39.8481 80.419,39.4421 C80.419,39.1631 80.328,38.9271 80.148,38.7331 C80.057,38.6331 79.922,38.5211 79.743,38.3971 C79.564,38.2731 79.337,38.1341 79.062,37.9791 C78.432,37.6241 77.992,37.2861 77.742,36.9651 C77.503,36.6451 77.384,36.2431 77.384,35.7611 C77.384,35.1171 77.612,34.5821 78.067,34.1581 C78.526,33.7311 79.114,33.5171 79.831,33.5171 C80.298,33.5171 80.696,33.6141 81.026,33.8061 C81.363,33.9991 81.708,34.3261 82.063,34.7881" id="Fill-58"></path>
                    <path d="M85.055,34.7121 L84.718,37.4171 L85.527,37.4171 C86.038,37.4171 86.43,37.2881 86.703,37.0271 C86.977,36.7671 87.114,36.3921 87.114,35.9011 C87.114,35.1081 86.603,34.7121 85.582,34.7121 L85.055,34.7121 Z M83.912,33.5171 L85.612,33.5171 C86.35,33.5171 86.913,33.6411 87.301,33.8871 C87.62,34.0871 87.869,34.3681 88.051,34.7301 C88.232,35.1041 88.322,35.4971 88.322,35.9111 C88.322,36.5131 88.153,37.0421 87.817,37.4991 C87.317,38.1771 86.53,38.5161 85.454,38.5161 L84.536,38.5161 L84.118,41.9081 L82.875,41.9081 L83.912,33.5171 Z" id="Fill-60"></path>
                    <path d="M96.6683,37.5494 C96.6683,36.6884 96.3963,35.9994 95.8523,35.4824 C95.3083,34.9694 94.5773,34.7124 93.6593,34.7124 C92.7383,34.7124 91.9643,35.0014 91.3363,35.5794 C90.7163,36.1584 90.4063,36.8814 90.4063,37.7484 C90.4063,38.6054 90.6943,39.3154 91.2713,39.8764 C91.8483,40.4344 92.5773,40.7134 93.4583,40.7134 C94.3753,40.7134 95.1393,40.4124 95.7493,39.8104 C96.3623,39.2154 96.6683,38.4614 96.6683,37.5494 M97.8763,37.5584 C97.8763,38.4784 97.6253,39.3134 97.1223,40.0624 C96.7243,40.6514 96.2033,41.1064 95.5603,41.4274 C94.9173,41.7484 94.2063,41.9084 93.4273,41.9084 C92.1803,41.9084 91.1643,41.5234 90.3783,40.7524 C89.5913,39.9794 89.1973,38.9784 89.1973,37.7524 C89.1973,36.5284 89.6143,35.5184 90.4473,34.7194 C91.2843,33.9184 92.3403,33.5174 93.6153,33.5174 C94.8903,33.5174 95.9193,33.8884 96.7023,34.6314 C97.4853,35.3704 97.8763,36.3454 97.8763,37.5584" id="Fill-62"></path>
                    <polygon id="Fill-64" points="107.0966 33.5173 105.9996 42.4853 100.9096 35.9873 100.1826 41.9083 98.9736 41.9083 100.0346 33.0643 105.1196 39.5463 105.8576 33.5173"></polygon>
                    <path d="M113.4794,34.7881 L112.6484,35.5811 C112.2534,35.0021 111.8014,34.7121 111.2904,34.7121 C110.9214,34.7121 110.6154,34.8211 110.3724,35.0381 C110.1294,35.2551 110.0084,35.5281 110.0084,35.8551 C110.0084,36.1181 110.0924,36.3431 110.2584,36.5331 C110.3414,36.6231 110.4634,36.7251 110.6254,36.8381 C110.7864,36.9521 110.9874,37.0781 111.2304,37.2161 C111.9504,37.6161 112.4314,37.9781 112.6744,38.3021 C112.9204,38.6301 113.0434,39.0591 113.0434,39.5901 C113.0434,40.2801 112.8124,40.8391 112.3504,41.2661 C111.8914,41.6941 111.2754,41.9081 110.5044,41.9081 C109.8814,41.9081 109.3544,41.7711 108.9244,41.4951 C108.7064,41.3571 108.5034,41.1781 108.3154,40.9571 C108.1274,40.7371 107.9464,40.4731 107.7724,40.1651 L108.7174,39.5241 C108.9744,39.9771 109.2264,40.2881 109.4724,40.4581 C109.7184,40.6281 110.0394,40.7131 110.4344,40.7131 C110.8724,40.7131 111.2154,40.6031 111.4634,40.3821 C111.7114,40.1621 111.8354,39.8481 111.8354,39.4421 C111.8354,39.1631 111.7444,38.9271 111.5634,38.7331 C111.4734,38.6331 111.3384,38.5211 111.1594,38.3971 C110.9804,38.2731 110.7534,38.1341 110.4784,37.9791 C109.8484,37.6241 109.4084,37.2861 109.1584,36.9651 C108.9194,36.6451 108.8004,36.2431 108.8004,35.7611 C108.8004,35.1171 109.0274,34.5821 109.4834,34.1581 C109.9424,33.7311 110.5294,33.5171 111.2474,33.5171 C111.7134,33.5171 112.1124,33.6141 112.4424,33.8061 C112.7784,33.9991 113.1244,34.3261 113.4794,34.7881" id="Fill-66"></path>
                    <path d="M116.4341,38.8594 L118.8021,38.8594 L117.9001,35.8774 L116.4341,38.8594 Z M115.8961,39.9584 L114.8751,41.9084 L113.5231,41.9084 L118.1611,32.9264 L121.0561,41.9084 L119.7581,41.9084 L119.1501,39.9584 L115.8961,39.9584 Z" id="Fill-68"></path>
                    <path d="M124.2038,34.7121 L123.8998,37.1841 L124.2528,37.1841 C125.3178,37.1841 125.8498,36.6951 125.8498,35.7181 C125.8498,35.0471 125.4438,34.7121 124.6328,34.7121 L124.2038,34.7121 Z M123.7388,38.0901 L123.4188,40.7131 L124.2688,40.7131 C124.9008,40.7131 125.3348,40.6341 125.5698,40.4751 C125.9298,40.2351 126.1108,39.8351 126.1108,39.2771 C126.1108,39.0661 126.0798,38.8861 126.0198,38.7361 C125.9588,38.5871 125.8638,38.4641 125.7358,38.3671 C125.6068,38.2711 125.4398,38.2011 125.2368,38.1571 C125.0318,38.1131 124.7868,38.0901 124.4998,38.0901 L123.7388,38.0901 Z M123.2058,33.5171 L124.7028,33.5171 C125.1738,33.5171 125.5568,33.5701 125.8498,33.6751 C126.1368,33.7801 126.3808,33.9581 126.5798,34.2071 C126.8988,34.6021 127.0578,35.0791 127.0578,35.6371 C127.0578,36.4851 126.6508,37.1311 125.8358,37.5771 C126.8248,37.8231 127.3188,38.4431 127.3188,39.4351 C127.3188,39.8451 127.2318,40.2311 127.0578,40.5931 C126.8978,40.9521 126.6708,41.2411 126.3768,41.4621 C126.1428,41.6401 125.8858,41.7581 125.6068,41.8161 C125.4598,41.8451 125.2828,41.8671 125.0768,41.8841 C124.8708,41.9001 124.6268,41.9081 124.3428,41.9081 L122.2108,41.9081 L123.2058,33.5171 Z" id="Fill-70"></path>
                    <polygon id="Fill-72" points="130.7789 33.5173 129.8939 40.7133 132.2669 40.7133 132.1259 41.9083 128.5089 41.9083 129.5399 33.5173"></polygon>
                    <polygon id="Fill-74" points="138.6486 33.5173 138.5076 34.7123 135.4276 34.7123 135.1616 36.8273 138.2416 36.8273 138.1106 37.9253 135.0316 37.9253 134.6836 40.7133 137.7636 40.7133 137.6166 41.9083 133.4756 41.9083 134.3756 33.5173"></polygon>
                </g>
            </g>
        </g>
    </g>
</svg>