<?xml version="1.0" encoding="UTF-8"?>
<svg width="200px" height="42px" viewBox="0 0 200 42" version="1.1" xmlns="http://www.w3.org/2000/svg" xmlns:xlink="http://www.w3.org/1999/xlink">
    <!-- Generator: Sketch 46.1 (44463) - http://www.bohemiancoding.com/sketch -->
    <title>LOGO</title>
    <desc>Created with Sketch.</desc>
    <defs>
        <polygon id="path-1" points="47.6796069 0.2505 0 0.2505 0 17.562875 0 34.87525 47.6796069 34.87525"></polygon>
        <polygon id="path-3" points="0 42 199.588206 42 199.588206 0.2505 0 0.2505"></polygon>
    </defs>
    <g id="Page-1" stroke="none" stroke-width="1" fill="none" fill-rule="evenodd">
        <g id="Home1" transform="translate(-138.000000, -39.000000)">
            <g id="SLIDER" transform="translate(0.000000, -1.000000)">
                <g id="LOGO" transform="translate(138.000000, 40.000000)">
                    <polygon id="Fill-1" fill="#ED342E" points="193.582888 7.00608844 194.374279 7.00608844 194.374279 9.69230769 194.918251 9.69230769 194.918251 7.00608844 195.721925 7.00608844 195.721925 6.46153846 193.582888 6.46153846"></polygon>
                    <polygon id="Fill-2" fill="#ED342E" points="199.067528 6.46153846 198.403259 8.85940925 197.729114 6.46153846 196.791444 6.46153846 196.791444 9.69230769 197.421928 9.69230769 197.357996 7.03872247 198.104909 9.69230769 198.686535 9.69230769 199.433448 7.03872247 199.370036 9.69230769 200 9.69230769 200 6.46153846"></polygon>
                    <g id="Group-55">
                        <path d="M65.0109582,20.0546 C65.0109582,20.7236 65.0109582,21.2331 64.7917936,21.8051 C64.1657494,23.4921 62.4139066,23.5876 61.9446192,23.5876 C61.4448649,23.5876 59.6920393,23.4921 59.1293857,21.7736 C58.8787715,21.0741 58.9102211,20.2776 58.9102211,20.0546 L58.9102211,6.0161 L51.9018673,6.0161 L51.9018673,19.3541 C51.9018673,21.7101 52.0586241,22.6336 52.4650123,23.7471 C53.4979361,26.5171 55.7500246,27.6306 56.6885995,28.0446 C58.8787715,29.0321 61.0689435,29.0956 61.8817199,29.0956 C65.8237346,29.0956 69.8286486,27.5351 71.3623096,23.4606 C71.8620639,22.1241 72.0497789,20.9146 72.0497789,19.4816 L72.0497789,6.0161 L65.0109582,6.0161 L65.0109582,20.0546 Z" id="Fill-3" fill="#ED342E"></path>
                        <path d="M83.3399017,20.3412 L85.7492383,12.4147 L88.0956757,20.3412 L83.3399017,20.3412 Z M81.8072236,6.0162 L73.3595577,28.4907 L80.8681572,28.4907 L81.8381818,25.3397 L89.5344963,25.3397 L90.5040295,28.4907 L98.0131204,28.4907 L89.7536609,6.0162 L81.8072236,6.0162 Z" id="Fill-5" fill="#ED342E"></path>
                        <polygon id="Fill-7" fill="#ED342E" points="114.432727 19.10025 106.955577 6.01625 99.540344 6.01625 99.540344 28.49075 106.047961 28.49075 105.985553 15.43875 113.337396 28.49075 120.877936 28.49075 120.877936 6.01625 114.33887 6.01625"></polygon>
                        <polygon id="Fill-9" fill="#ED342E" points="122.249287 11.5551 127.880737 11.5551 127.880737 28.4906 134.857641 28.4906 134.857641 11.5551 140.457641 11.5551 140.457641 6.0161 122.249287 6.0161"></polygon>
                        <path d="M161.978329,6.01625 L154.939509,6.01625 L154.939509,20.05475 C154.939509,20.72375 154.939509,21.23325 154.720344,21.80525 C154.0943,23.49225 152.342457,23.58775 151.87317,23.58775 C151.372924,23.58775 149.62059,23.49225 149.057936,21.77375 C148.807322,21.07375 148.838771,20.27725 148.838771,20.05475 L148.838771,6.01625 L141.830418,6.01625 L141.830418,19.35375 C141.830418,21.70975 141.986683,22.63325 142.394054,23.74675 C143.426486,26.51675 145.678084,27.63075 146.61715,28.04475 C148.807322,29.03175 150.997494,29.09575 151.810762,29.09575 C155.752285,29.09575 159.756708,27.53525 161.29086,23.46075 C161.790123,22.12375 161.978329,20.91425 161.978329,19.48125 L161.978329,6.01625 Z" id="Fill-11" fill="#ED342E"></path>
                        <polygon id="Fill-13" fill="#ED342E" points="171.265995 12.19205 175.614889 28.49055 180.80801 28.49055 185.219803 12.19205 185.156904 28.49055 191.820786 28.49055 191.820786 6.01605 181.809484 6.01605 178.27484 20.15055 174.675823 6.01605 164.664521 6.01605 164.664521 28.49055 171.296953 28.49055"></polygon>
                        <path d="M30.6942998,27.87075 C25.108059,27.87075 20.5635872,23.24625 20.5635872,17.56275 C20.5635872,11.87875 25.108059,7.25475 30.6942998,7.25475 C36.2805405,7.25475 40.8250123,11.87875 40.8250123,17.56275 C40.8250123,23.24625 36.2805405,27.87075 30.6942998,27.87075 M47.6795577,17.56275 C47.6795577,8.03275 40.0603931,0.28025 30.6942998,0.28025 C21.3286978,0.28025 13.7090418,8.03275 13.7090418,17.56275 C13.7090418,27.09225 21.3286978,34.84525 30.6942998,34.84525 C32.9699754,34.84525 35.1414742,34.38425 37.1267322,33.55425 C39.4569533,35.43125 43.1739066,37.55725 48.0613759,37.55725 L48.0613759,30.58925 C46.1090418,30.58925 44.4540049,30.01675 43.1458968,29.30075 C45.957199,26.21575 47.6795577,22.09075 47.6795577,17.56275" id="Fill-15" fill="#ED342E"></path>
                        <g id="Group-19">
                            <mask id="mask-2" fill="white">
                                <use xlink:href="#path-1"></use>
                            </mask>
                            <g id="Clip-18"></g>
                            <path d="M17.014742,7.22475 C11.4127764,7.22475 6.85454545,11.86225 6.85454545,17.56275 C6.85454545,23.26275 11.4127764,27.90075 17.014742,27.90075 L30.6648649,27.90075 C36.2673219,27.90075 40.8255528,23.26275 40.8255528,17.56275 C40.8255528,11.86225 36.2673219,7.22475 30.6648649,7.22475 L17.014742,7.22475 Z M30.6648649,34.87525 L17.014742,34.87525 C7.63292383,34.87525 0,27.10875 0,17.56275 C0,8.01675 7.63292383,0.25025 17.014742,0.25025 L30.6648649,0.25025 C40.0471744,0.25025 47.6796069,8.01675 47.6796069,17.56275 C47.6796069,27.10875 40.0471744,34.87525 30.6648649,34.87525 L30.6648649,34.87525 Z" id="Fill-17" fill="#ED342E" mask="url(#mask-2)"></path>
                        </g>
                        <polygon id="Fill-20" fill="#ED342E" points="55.5978378 39.52555 55.5978378 31.89555 60.7595086 31.89555 60.7595086 32.79255 56.5545946 32.79255 56.5545946 35.14905 60.2076658 35.14905 60.2076658 36.03505 56.5545946 36.03505 56.5545946 38.63955 60.8872727 38.63955 60.8872727 39.52555"></polygon>
                        <path d="M65.3027518,39.52555 L65.3027518,36.28305 C65.3027518,36.13155 65.3464865,35.63555 64.9209337,35.31105 C64.7946437,35.21305 64.5597543,35.08305 64.1671253,35.08305 C63.7961179,35.08305 63.4983292,35.20255 63.2319902,35.46155 C63.1685995,35.52705 63.0197052,35.68955 62.9356757,35.92655 C62.8393612,36.16505 62.8393612,36.38105 62.8393612,36.62905 L62.8393612,39.52555 L61.9897297,39.52555 L61.9897297,34.43605 L62.8393612,34.43605 L62.8393612,35.18155 C62.9459951,34.99755 63.0511548,34.87855 63.1057002,34.82455 C63.2860442,34.63005 63.7204423,34.27405 64.41086,34.27405 C64.6349386,34.27405 65.3887469,34.33805 65.8349386,34.97605 C66.1646683,35.44005 66.1420639,35.93705 66.1420639,36.48805 L66.1420639,39.52555 L65.3027518,39.52555 Z" id="Fill-22" fill="#ED342E"></path>
                        <path d="M71.1095823,36.0136 C70.9395577,35.3861 70.4088452,34.9441 69.7498771,34.9441 C68.8476658,34.9441 68.4009828,35.7001 68.3272727,36.5111 L71.1847666,36.5111 C71.1636364,36.2511 71.1410319,36.1316 71.1095823,36.0136 M71.7788698,38.6826 C71.5248157,39.0711 70.9724816,39.6881 69.8461916,39.6881 C69.3257985,39.6881 68.9857494,39.5686 68.795086,39.4826 C68.1783784,39.2116 67.3916462,38.5201 67.3916462,36.9316 C67.3916462,35.9926 67.7002457,35.4616 67.955774,35.1491 C68.4113022,34.5861 69.1017199,34.2741 69.814742,34.2741 C70.0687961,34.2741 70.3665848,34.3271 70.5995086,34.4131 C70.9081081,34.5216 71.5248157,34.8246 71.8643735,35.6236 C72.0029484,35.9586 72.1081081,36.3701 72.1081081,37.1371 L68.3061425,37.1371 C68.2953317,38.0446 68.7199017,38.5631 69.0280098,38.7806 C69.2835381,38.9531 69.6132678,39.0391 69.9307125,39.0391 C70.387715,39.0391 70.6206388,38.8661 70.7695332,38.7251 C70.8235872,38.6826 70.9498771,38.5526 71.046683,38.3901 C71.1739558,38.1636 71.227027,37.9156 71.2476658,37.8501 L72.1081081,37.9696 C72.0658477,38.0781 71.9695332,38.3796 71.7788698,38.6826" id="Fill-24" fill="#ED342E"></path>
                        <path d="M75.2709091,35.30045 C74.7716462,35.38595 74.389828,35.73195 74.2635381,36.22945 C74.1878624,36.48795 74.1878624,36.67345 74.1878624,37.16895 L74.1878624,39.52545 L73.338231,39.52545 L73.338231,34.43595 L74.1878624,34.43595 L74.1878624,35.36495 C74.3053071,35.13845 74.4542015,34.94395 74.6561671,34.78195 C74.8571499,34.61945 75.2497789,34.37045 75.8979361,34.37045 L75.8979361,35.30045 C75.589828,35.25645 75.4198034,35.26695 75.2709091,35.30045" id="Fill-26" fill="#ED342E"></path>
                        <path d="M80.4325307,36.1315 C80.2099263,35.44 79.6236855,35.0405 78.934742,35.051 C78.7121376,35.051 78.4772482,35.1045 78.2846192,35.2025 C77.8816708,35.4075 77.4153317,35.937 77.4153317,36.9855 C77.4153317,37.57 77.5539066,38.217 78.0413759,38.6075 C78.3180344,38.823 78.6457985,38.909 78.9976413,38.909 C79.5091892,38.909 79.7946929,38.7145 79.9539066,38.574 C80.2610319,38.294 80.5376904,37.818 80.5376904,36.9105 C80.5376904,36.8125 80.5254054,36.445 80.4325307,36.1315 M81.2718428,40.574 C80.9951843,41.5255 80.2728256,41.7845 79.9332678,41.882 C79.761769,41.925 79.475774,42 79.0605405,42 C78.9136118,42 78.6035381,41.9895 78.2217199,41.882 C77.0109091,41.547 76.8408845,40.574 76.7779853,40.1085 L77.7342506,40.1085 C77.7342506,40.228 77.7342506,40.531 77.9465356,40.811 C78.3057494,41.3085 78.9435872,41.2975 79.115086,41.2975 C79.2325307,41.2975 79.9632432,41.3085 80.2939558,40.779 C80.4836364,40.465 80.5165602,40.098 80.5047666,39.374 L80.49543,38.791 C79.9209828,39.59 79.2625061,39.688 78.8590663,39.688 C78.3509582,39.688 77.9676658,39.5255 77.8079607,39.44 C77.2669287,39.1475 76.54457,38.456 76.54457,37.0065 C76.54457,36.7695 76.5553808,35.8515 77.0649631,35.16 C77.4890418,34.598 78.0094349,34.274 78.8713514,34.274 C78.9976413,34.274 79.2536609,34.295 79.5514496,34.4025 C79.7735627,34.4895 80.134742,34.6835 80.5047666,35.1275 L80.5047666,34.436 L81.3887961,34.436 L81.3887961,39.255 C81.3887961,39.9465 81.3770025,40.2065 81.2718428,40.574" id="Fill-28" fill="#ED342E"></path>
                        <path d="M83.4552826,33.88345 L83.0194103,33.88345 L83.4552826,32.32745 L84.3697789,32.32745 L83.4552826,33.88345 Z M82.9260442,39.52545 L83.744226,39.52545 L83.744226,34.43595 L82.9260442,34.43595 L82.9260442,39.52545 Z" id="Fill-30" fill="#ED342E"></path>
                        <path d="M88.2349386,37.13685 L88.2349386,37.04035 C87.8408354,37.10485 86.8423096,37.23485 86.4511548,37.40785 C86.291941,37.47185 85.8344472,37.68785 85.8344472,38.18535 C85.8344472,38.56335 86.1111057,38.94235 86.7789189,38.94235 C87.2364128,38.94235 88.2437838,38.74835 88.2437838,37.43985 C88.2437838,37.34185 88.2349386,37.23485 88.2349386,37.13685 M89.1794103,39.58985 C89.1371499,39.58985 88.8393612,39.58985 88.650172,39.46135 C88.5627027,39.39535 88.4998034,39.29935 88.4786732,39.26535 C88.3400983,39.07135 88.3312531,38.94235 88.3101229,38.83385 C88.0752334,39.09435 87.5641769,39.66635 86.5985749,39.66635 C86.2590172,39.66635 86.0359214,39.60035 85.906683,39.55785 C85.3140541,39.35285 84.8988206,38.86585 84.8988206,38.20635 C84.8988206,37.96935 84.9622113,37.48285 85.440344,37.10485 C85.9518919,36.71585 86.832973,36.57535 87.4708108,36.53235 L88.2349386,36.47735 C88.2349386,36.33785 88.2349386,36.19735 88.223145,36.05635 C88.2020147,35.68935 88.1386241,34.93185 87.1189681,34.93185 C86.9592629,34.93185 86.291941,34.93185 86.0904668,35.54835 C86.0359214,35.71035 86.0359214,35.82985 86.0359214,36.00285 L85.1548403,35.94785 C85.1548403,35.85135 85.1759705,35.66785 85.2388698,35.45035 C85.3985749,34.96535 85.8644226,34.27385 87.0767076,34.27385 C87.2241278,34.27385 87.5007862,34.28435 87.8619656,34.38085 C88.0634398,34.43585 88.7342015,34.64085 88.9779361,35.33285 C89.0742506,35.60185 89.0830958,35.86235 89.0830958,36.42385 L89.0830958,38.08885 C89.0830958,38.19585 89.0830958,38.31485 89.0948894,38.42385 C89.104226,38.54185 89.1160197,38.81235 89.464914,38.81235 C89.5735135,38.81235 89.6246192,38.79135 89.7204423,38.76985 L89.7204423,39.49335 C89.464914,39.57935 89.3179853,39.58985 89.1794103,39.58985" id="Fill-32" fill="#ED342E"></path>
                        <path d="M96.6960197,37.13685 L96.6960197,37.04035 C96.3019165,37.10485 95.3033907,37.23485 94.9122359,37.40785 C94.7530221,37.47185 94.2955283,37.68785 94.2955283,38.18535 C94.2955283,38.56335 94.5726781,38.94235 95.2404914,38.94235 C95.6974939,38.94235 96.7053563,38.74835 96.7053563,37.43985 C96.7053563,37.34185 96.6960197,37.23485 96.6960197,37.13685 M97.6404914,39.58985 C97.598231,39.58985 97.3004423,39.58985 97.1112531,39.46135 C97.0237838,39.39535 96.9608845,39.29935 96.9397543,39.26535 C96.8011794,39.07135 96.7923342,38.94235 96.7712039,38.83385 C96.5368059,39.09435 96.025258,39.66635 95.059656,39.66635 C94.7200983,39.66635 94.4970025,39.60035 94.3677641,39.55785 C93.7756265,39.35285 93.3603931,38.86585 93.3603931,38.20635 C93.3603931,37.96935 93.4232924,37.48285 93.9014251,37.10485 C94.412973,36.71585 95.2940541,36.57535 95.9318919,36.53235 L96.6960197,36.47735 C96.6960197,36.33785 96.6960197,36.19735 96.684226,36.05635 C96.6630958,35.68935 96.5997052,34.93185 95.5800491,34.93185 C95.4208354,34.93185 94.7530221,34.93185 94.5481081,35.54835 C94.4970025,35.71035 94.4970025,35.82985 94.4970025,36.00285 L93.6159214,35.94785 C93.6159214,35.85135 93.6370516,35.66785 93.6999509,35.45035 C93.859656,34.96535 94.3259951,34.27385 95.5382801,34.27385 C95.6852088,34.27385 95.9618673,34.28435 96.3230467,34.38085 C96.5245209,34.43585 97.1952826,34.64085 97.4390172,35.33285 C97.5353317,35.60185 97.5441769,35.86235 97.5441769,36.42385 L97.5441769,38.08885 C97.5441769,38.19585 97.5441769,38.31485 97.5559705,38.42385 C97.5653071,38.54185 97.5771007,38.81235 97.9259951,38.81235 C98.0345946,38.81235 98.0857002,38.79135 98.1820147,38.76985 L98.1820147,39.49335 C97.9259951,39.57935 97.7790663,39.58985 97.6404914,39.58985" id="Fill-34" fill="#ED342E"></path>
                        <path d="M103.024717,36.11 C102.907273,35.7855 102.525455,35.0405 101.526929,35.083 C101.249779,35.094 100.964275,35.1815 100.741671,35.3325 C100.389828,35.57 99.9863882,36.0885 99.9863882,37.0725 C99.9863882,37.775 100.188354,38.142 100.380491,38.4025 C100.519066,38.574 100.69941,38.7145 100.900885,38.8015 C101.015381,38.8555 101.22914,38.932 101.559853,38.932 C102.290565,38.932 102.600639,38.6075 102.780983,38.3475 C103.151007,37.818 103.151007,37.1585 103.151007,36.964 C103.151007,36.857 103.151007,36.4665 103.024717,36.11 M103.48172,38.834 C103.213907,39.18 102.705799,39.688 101.673857,39.688 C101.430614,39.688 100.78344,39.6665 100.230123,39.1905 C100.167224,39.137 100.092039,39.0605 99.9863882,38.932 L99.9863882,41.9465 L99.1593612,41.9465 L99.1593612,34.436 L99.9863882,34.436 L99.9986732,35.16 C100.062064,35.083 100.209484,34.8995 100.422752,34.7375 C100.943145,34.3275 101.568698,34.274 101.770172,34.274 C102.28172,34.274 102.651744,34.468 102.823243,34.5645 C103.343145,34.857 104.023243,35.559 104.023243,36.996 C104.023243,37.2775 104.023243,38.1205 103.48172,38.834" id="Fill-36" fill="#ED342E"></path>
                        <mask id="mask-4" fill="white">
                            <use xlink:href="#path-3"></use>
                        </mask>
                        <g id="Clip-39"></g>
                        <polygon id="Fill-38" fill="#ED342E" mask="url(#mask-4)" points="105.286486 39.5255 106.092875 39.5255 106.092875 31.8955 105.286486 31.8955"></polygon>
                        <path d="M107.653563,39.5255 L108.471744,39.5255 L108.471744,34.436 L107.653563,34.436 L107.653563,39.5255 Z M107.653563,32.89 L108.471744,32.89 L108.471744,31.8955 L107.653563,31.8955 L107.653563,32.89 Z" id="Fill-40" fill="#ED342E" mask="url(#mask-4)"></path>
                        <path d="M113.672334,39.2333 C113.100835,39.6878 112.388305,39.6878 112.1657,39.6878 C112.01828,39.6878 111.624177,39.6878 111.221229,39.5363 C110.613366,39.3203 109.680688,38.6398 109.680688,37.0188 C109.690025,35.3863 110.56226,34.6623 111.200098,34.4238 C111.603047,34.2738 111.942604,34.2738 112.111155,34.2738 C113.440885,34.2738 114.045307,35.0083 114.280197,35.5268 C114.352432,35.6893 114.385356,35.8068 114.41828,35.9818 L113.483145,36.0673 C113.462015,35.9818 113.419754,35.7108 113.269386,35.4733 C112.920491,34.9208 112.324914,34.8998 112.12344,34.8998 C111.359312,34.8998 110.613366,35.4183 110.613366,36.9638 C110.613366,37.8608 110.90231,38.3688 111.187813,38.6503 C111.476757,38.9198 111.804521,39.0173 112.18683,39.0173 C112.408943,39.0173 112.622703,38.9853 112.824177,38.8878 C113.377494,38.6398 113.516069,38.1423 113.60059,37.6018 L114.511646,37.6878 C114.376511,38.5418 113.940147,39.0173 113.672334,39.2333" id="Fill-41" fill="#ED342E" mask="url(#mask-4)"></path>
                        <path d="M118.611302,37.13685 L118.611302,37.04035 C118.217199,37.10485 117.218673,37.23485 116.827518,37.40785 C116.668305,37.47185 116.210811,37.68785 116.210811,38.18535 C116.210811,38.56335 116.487961,38.94235 117.155283,38.94235 C117.612776,38.94235 118.620639,38.74835 118.620639,37.43985 C118.620639,37.34185 118.611302,37.23485 118.611302,37.13685 M119.555774,39.58985 C119.514005,39.58985 119.215725,39.58985 119.026536,39.46135 C118.939066,39.39535 118.876167,39.29935 118.855037,39.26535 C118.716953,39.07135 118.707617,38.94235 118.686486,38.83385 C118.452088,39.09435 117.940541,39.66635 116.974939,39.66635 C116.635381,39.66635 116.412285,39.60035 116.283538,39.55785 C115.690909,39.35285 115.275676,38.86585 115.275676,38.20635 C115.275676,37.96935 115.339066,37.48285 115.816708,37.10485 C116.328256,36.71585 117.209337,36.57535 117.847174,36.53235 L118.611302,36.47735 C118.611302,36.33785 118.611302,36.19735 118.599509,36.05635 C118.578378,35.68935 118.515479,34.93185 117.495332,34.93185 C117.336118,34.93185 116.668305,34.93185 116.463882,35.54835 C116.412285,35.71035 116.412285,35.82985 116.412285,36.00285 L115.531204,35.94785 C115.531204,35.85135 115.552334,35.66785 115.615233,35.45035 C115.77543,34.96535 116.241278,34.27385 117.453563,34.27385 C117.600491,34.27385 117.877641,34.28435 118.238329,34.38085 C118.439803,34.43585 119.111057,34.64085 119.3543,35.33285 C119.450614,35.60185 119.459951,35.86235 119.459951,36.42385 L119.459951,38.08885 C119.459951,38.19585 119.459951,38.31485 119.471744,38.42385 C119.481081,38.54185 119.492875,38.81235 119.841769,38.81235 C119.949877,38.81235 120.000983,38.79135 120.097297,38.76985 L120.097297,39.49335 C119.841769,39.57935 119.694349,39.58985 119.555774,39.58985" id="Fill-42" fill="#ED342E" mask="url(#mask-4)"></path>
                        <path d="M124.765307,36.3151 C124.596757,35.5806 124.04344,35.0726 123.291597,35.0621 C123.066044,35.0621 122.536806,35.0941 122.133857,35.5911 C121.793808,36.0026 121.706339,36.4776 121.706339,36.9961 C121.706339,37.1901 121.697494,37.8391 122.091597,38.3686 C122.494545,38.8981 123.023784,38.9196 123.267518,38.9196 C123.565307,38.9196 123.841966,38.8556 124.076855,38.7036 C124.44688,38.4666 124.840491,37.9481 124.831646,36.9746 C124.831646,36.8781 124.831646,36.5861 124.765307,36.3151 L124.765307,36.3151 Z M124.810516,39.5256 L124.810516,38.8771 C124.554988,39.1796 124.0857,39.6881 123.098968,39.6881 C122.142703,39.6881 121.655233,39.2226 121.41199,38.9196 C121.123047,38.5741 120.795283,37.9906 120.795283,36.9641 C120.795283,36.3151 120.912236,35.7106 121.303391,35.1811 C121.525995,34.8676 122.079312,34.2736 123.087174,34.2736 C123.799705,34.2736 124.299459,34.6086 124.512727,34.7821 C124.639017,34.8886 124.714201,34.9761 124.810516,35.1046 L124.810516,31.8956 L125.658673,31.8956 L125.658673,39.5256 L124.810516,39.5256 Z" id="Fill-43" fill="#ED342E" mask="url(#mask-4)"></path>
                        <path d="M130.161622,37.13685 L130.161622,37.04035 C129.767518,37.10485 128.768993,37.23485 128.377838,37.40785 C128.218624,37.47185 127.76113,37.68785 127.76113,38.18535 C127.76113,38.56335 128.03828,38.94235 128.705602,38.94235 C129.163096,38.94235 130.170958,38.74835 130.170958,37.43985 C130.170958,37.34185 130.161622,37.23485 130.161622,37.13685 M131.106093,39.58985 C131.063833,39.58985 130.766044,39.58985 130.576855,39.46135 C130.489386,39.39535 130.426486,39.29935 130.405356,39.26535 C130.266781,39.07135 130.257936,38.94235 130.236806,38.83385 C130.002408,39.09435 129.49086,39.66635 128.525258,39.66635 C128.1857,39.66635 127.962604,39.60035 127.833857,39.55785 C127.241229,39.35285 126.825995,38.86585 126.825995,38.20635 C126.825995,37.96935 126.889386,37.48285 127.367027,37.10485 C127.878575,36.71585 128.759656,36.57535 129.397494,36.53235 L130.161622,36.47735 C130.161622,36.33785 130.161622,36.19735 130.149828,36.05635 C130.128698,35.68935 130.065307,34.93185 129.045651,34.93185 C128.885946,34.93185 128.218624,34.93185 128.014201,35.54835 C127.962604,35.71035 127.962604,35.82985 127.962604,36.00285 L127.081523,35.94785 C127.081523,35.85135 127.102654,35.66785 127.165553,35.45035 C127.325258,34.96535 127.791597,34.27385 129.003882,34.27385 C129.150811,34.27385 129.427961,34.28435 129.788649,34.38085 C129.990123,34.43585 130.661376,34.64085 130.904619,35.33285 C131.000934,35.60185 131.01027,35.86235 131.01027,36.42385 L131.01027,38.08885 C131.01027,38.19585 131.01027,38.31485 131.022064,38.42385 C131.030909,38.54185 131.043194,38.81235 131.392088,38.81235 C131.500197,38.81235 131.551302,38.79135 131.647125,38.76985 L131.647125,39.49335 C131.392088,39.57935 131.244177,39.58985 131.106093,39.58985" id="Fill-44" fill="#ED342E" mask="url(#mask-4)"></path>
                        <path d="M138.622899,37.13685 L138.622899,37.04035 C138.228796,37.10485 137.23027,37.23485 136.839115,37.40785 C136.679902,37.47185 136.222408,37.68785 136.222408,38.18535 C136.222408,38.56335 136.499558,38.94235 137.16688,38.94235 C137.624373,38.94235 138.632236,38.74835 138.632236,37.43985 C138.632236,37.34185 138.622899,37.23485 138.622899,37.13685 M139.567371,39.58985 C139.525111,39.58985 139.227322,39.58985 139.038133,39.46135 C138.950663,39.39535 138.887273,39.29935 138.866143,39.26535 C138.728059,39.07135 138.718722,38.94235 138.697592,38.83385 C138.463686,39.09435 137.952138,39.66635 136.986536,39.66635 C136.646978,39.66635 136.423882,39.60035 136.294644,39.55785 C135.702506,39.35285 135.287273,38.86585 135.287273,38.20635 C135.287273,37.96935 135.350172,37.48285 135.828305,37.10485 C136.339853,36.71585 137.220934,36.57535 137.858771,36.53235 L138.622899,36.47735 C138.622899,36.33785 138.622899,36.19735 138.611106,36.05635 C138.589975,35.68935 138.526585,34.93185 137.506929,34.93185 C137.347224,34.93185 136.679902,34.93185 136.478428,35.54835 C136.423882,35.71035 136.423882,35.82985 136.423882,36.00285 L135.54231,35.94785 C135.54231,35.85135 135.56344,35.66785 135.62683,35.45035 C135.786536,34.96535 136.252875,34.27385 137.46516,34.27385 C137.612088,34.27385 137.888747,34.28435 138.249435,34.38085 C138.450909,34.43585 139.122162,34.64085 139.365897,35.33285 C139.46172,35.60185 139.471057,35.86235 139.471057,36.42385 L139.471057,38.08885 C139.471057,38.19585 139.471057,38.31485 139.48285,38.42385 C139.492187,38.54185 139.50398,38.81235 139.852875,38.81235 C139.961474,38.81235 140.012088,38.79135 140.108403,38.76985 L140.108403,39.49335 C139.852875,39.57935 139.705455,39.58985 139.567371,39.58985" id="Fill-45" fill="#ED342E" mask="url(#mask-4)"></path>
                        <path d="M145.351351,39.61125 C144.872727,39.61125 144.629484,39.49375 144.503194,39.29925 C144.373956,39.10475 144.385749,38.89825 144.385749,38.45575 L144.385749,35.14925 L143.576904,35.14925 L143.576904,34.43575 L144.385749,34.43575 L144.385749,32.82475 L145.255528,32.82475 L145.255528,34.43575 L146.160197,34.43575 L146.160197,35.14925 L145.255528,35.14925 L145.255528,38.06725 C145.255528,38.42375 145.234398,38.62875 145.320885,38.78025 C145.384275,38.89825 145.489435,38.93175 145.62801,38.93175 C145.724324,38.93175 145.925799,38.89825 146.160197,38.81225 L146.160197,39.52575 C146.094349,39.53625 145.682555,39.61125 145.351351,39.61125" id="Fill-46" fill="#ED342E" mask="url(#mask-4)"></path>
                        <path d="M150.642064,39.52555 L150.63027,38.74805 C150.588501,38.81255 150.533956,38.88755 150.419951,39.00655 C150.013563,39.41705 149.505455,39.65555 148.931007,39.65555 C148.750172,39.65555 147.974251,39.62355 147.592432,38.98555 C147.306437,38.49855 147.339361,37.94805 147.339361,37.41855 L147.339361,34.43605 L148.178673,34.43605 L148.178673,37.33105 C148.178673,37.87155 148.178673,38.11005 148.29317,38.35805 C148.401278,38.57405 148.666143,38.84455 149.207666,38.84455 C149.400295,38.84455 150.034693,38.80155 150.398821,38.26155 C150.6514,37.88205 150.642064,37.41855 150.642064,36.98505 L150.642064,34.43605 L151.469582,34.43605 L151.469582,39.52555 L150.642064,39.52555 Z" id="Fill-47" fill="#ED342E" mask="url(#mask-4)"></path>
                        <path d="M159.326044,39.52555 L159.326044,36.28305 C159.326044,36.13155 159.368305,35.63555 158.944226,35.31105 C158.814496,35.21305 158.583047,35.08305 158.189435,35.08305 C157.815971,35.08305 157.518182,35.20255 157.253317,35.46155 C157.190418,35.52705 157.042998,35.68955 156.95602,35.92655 C156.859214,36.16505 156.859214,36.38105 156.859214,36.62905 L156.859214,39.52555 L156.011548,39.52555 L156.011548,34.43605 L156.859214,34.43605 L156.859214,35.18155 C156.967813,34.99755 157.072973,34.87855 157.127027,34.82455 C157.307862,34.63005 157.743735,34.27405 158.432678,34.27405 C158.655283,34.27405 159.410074,34.33805 159.855283,34.97605 C160.186486,35.44005 160.165356,35.93705 160.165356,36.48805 L160.165356,39.52555 L159.326044,39.52555 Z" id="Fill-48" fill="#ED342E" mask="url(#mask-4)"></path>
                        <path d="M165.134054,36.0136 C164.962555,35.3861 164.433317,34.9441 163.774349,34.9441 C162.869681,34.9441 162.42398,35.7001 162.348796,36.5111 L165.20629,36.5111 C165.18516,36.2511 165.164521,36.1316 165.134054,36.0136 M165.801867,38.6826 C165.546339,39.0711 164.995971,39.6881 163.867715,39.6881 C163.347322,39.6881 163.007764,39.5686 162.818084,39.4826 C162.201376,39.2116 161.416609,38.5201 161.416609,36.9316 C161.416609,35.9926 161.723243,35.4616 161.978771,35.1491 C162.436265,34.5861 163.124717,34.2741 163.83774,34.2741 C164.093759,34.2741 164.388108,34.3271 164.622998,34.4131 C164.93258,34.5216 165.546339,34.8246 165.885897,35.6236 C166.024472,35.9586 166.13258,36.3701 166.13258,37.1371 L162.327666,37.1371 C162.318821,38.0446 162.742899,38.5631 163.052973,38.7806 C163.305061,38.9531 163.636265,39.0391 163.955184,39.0391 C164.412187,39.0391 164.644128,38.8661 164.794496,38.7251 C164.845602,38.6826 164.97484,38.5526 165.067715,38.3901 C165.197445,38.1636 165.251499,37.9156 165.272629,37.8501 L166.13258,37.9696 C166.087371,38.0781 165.994496,38.3796 165.801867,38.6826" id="Fill-49" fill="#ED342E" mask="url(#mask-4)"></path>
                        <path d="M170.993415,36.1315 C170.770811,35.44 170.187027,35.0405 169.495627,35.051 C169.273022,35.051 169.038133,35.1045 168.848943,35.2025 C168.445504,35.4075 167.976216,35.937 167.976216,36.9855 C167.976216,37.57 168.115283,38.217 168.605209,38.6075 C168.878919,38.823 169.209631,38.909 169.558526,38.909 C170.070074,38.909 170.355577,38.7145 170.515283,38.574 C170.824865,38.294 171.102015,37.818 171.102015,36.9105 C171.102015,36.8125 171.08973,36.445 170.993415,36.1315 M171.832727,40.574 C171.556069,41.5255 170.834201,41.7845 170.494152,41.882 C170.326093,41.925 170.03715,42 169.624865,42 C169.474496,42 169.167862,41.9895 168.786044,41.882 C167.573759,41.547 167.405209,40.574 167.33887,40.1085 L168.295627,40.1085 C168.295627,40.228 168.295627,40.531 168.508894,40.811 C168.870074,41.3085 169.507912,41.2975 169.675971,41.2975 C169.793415,41.2975 170.527568,41.3085 170.855332,40.779 C171.047469,40.465 171.077936,40.098 171.0686,39.374 L171.056806,38.791 C170.485307,39.59 169.826339,39.688 169.423391,39.688 C168.912334,39.688 168.530025,39.5255 168.370811,39.44 C167.829287,39.1475 167.10742,38.456 167.10742,37.0065 C167.10742,36.7695 167.116265,35.8515 167.627322,35.16 C168.051892,34.598 168.572285,34.274 169.432236,34.274 C169.558526,34.274 169.814545,34.295 170.112334,34.4025 C170.334939,34.4895 170.696118,34.6835 171.0686,35.1275 L171.0686,34.436 L171.949681,34.436 L171.949681,39.255 C171.949681,39.9465 171.941327,40.2065 171.832727,40.574" id="Fill-50" fill="#ED342E" mask="url(#mask-4)"></path>
                        <path d="M176.937297,35.6786 C176.865061,35.5376 176.747617,35.3861 176.630172,35.2901 C176.269484,34.9761 175.875381,34.9656 175.716167,34.9656 C174.112727,34.9656 174.122064,36.7481 174.122064,37.0406 C174.122064,37.2886 174.154988,37.4826 174.166781,37.5591 C174.217887,37.9266 174.473415,39.0066 175.66457,38.9961 C175.896511,38.9961 176.470958,38.9426 176.852776,38.3581 C177.172187,37.8716 177.192826,37.0836 177.192826,36.9746 C177.204619,36.8341 177.204619,36.1761 176.937297,35.6786 M177.52059,38.8341 C177.24688,39.1691 176.705356,39.6881 175.66457,39.6881 C175.367273,39.6881 174.536806,39.6556 173.932383,39.0176 C173.613464,38.6931 173.198722,38.0781 173.198722,37.0066 C173.198722,36.3486 173.36973,35.6891 173.77317,35.1596 C174.260147,34.5216 174.909779,34.2736 175.695037,34.2736 C176.034595,34.2736 176.395283,34.3381 176.693563,34.4681 C177.276855,34.7161 178.128452,35.4396 178.107322,36.9851 C178.107322,37.2671 178.073907,38.1316 177.52059,38.8341" id="Fill-51" fill="#ED342E" mask="url(#mask-4)"></path>
                        <path d="M183.073071,39.2333 C182.501572,39.6878 181.789042,39.6878 181.566437,39.6878 C181.419017,39.6878 181.024914,39.6878 180.621966,39.5363 C180.014103,39.3203 179.081916,38.6398 179.081916,37.0188 C179.090762,35.3863 179.962998,34.6623 180.600835,34.4238 C181.003784,34.2738 181.343342,34.2738 181.511892,34.2738 C182.841622,34.2738 183.446044,35.0083 183.680442,35.5268 C183.75317,35.6893 183.786093,35.8068 183.819509,35.9818 L182.883391,36.0673 C182.86226,35.9818 182.820491,35.7108 182.670123,35.4733 C182.321229,34.9208 181.725651,34.8998 181.524177,34.8998 C180.760049,34.8998 180.014103,35.4183 180.014103,36.9638 C180.014103,37.8608 180.302555,38.3688 180.58855,38.6503 C180.874054,38.9198 181.205258,39.0173 181.587568,39.0173 C181.810172,39.0173 182.02344,38.9853 182.224914,38.8878 C182.778231,38.6398 182.913857,38.1423 183.001327,37.6018 L183.912383,37.6878 C183.777248,38.5418 183.340885,39.0173 183.073071,39.2333" id="Fill-52" fill="#ED342E" mask="url(#mask-4)"></path>
                        <path d="M185.07027,39.5255 L185.888452,39.5255 L185.888452,34.436 L185.07027,34.436 L185.07027,39.5255 Z M185.07027,32.89 L185.888452,32.89 L185.888452,31.8955 L185.07027,31.8955 L185.07027,32.89 Z" id="Fill-53" fill="#ED342E" mask="url(#mask-4)"></path>
                        <path d="M190.845749,35.6786 C190.773514,35.5376 190.656069,35.3861 190.538624,35.2901 C190.177936,34.9761 189.783833,34.9656 189.624619,34.9656 C188.021179,34.9656 188.030516,36.7481 188.030516,37.0406 C188.030516,37.2886 188.06344,37.4826 188.075233,37.5591 C188.126339,37.9266 188.381867,39.0066 189.573022,38.9961 C189.804963,38.9961 190.37941,38.9426 190.761229,38.3581 C191.080147,37.8716 191.101278,37.0836 191.101278,36.9746 C191.113071,36.8341 191.113071,36.1761 190.845749,35.6786 M191.429042,38.8341 C191.155332,39.1691 190.613808,39.6881 189.573022,39.6881 C189.275725,39.6881 188.445258,39.6556 187.840835,39.0176 C187.521425,38.6931 187.106683,38.0781 187.106683,37.0066 C187.106683,36.3486 187.278182,35.6891 187.681622,35.1596 C188.1686,34.5216 188.818231,34.2736 189.603489,34.2736 C189.943047,34.2736 190.303735,34.3381 190.602015,34.4681 C191.185307,34.7161 192.036904,35.4396 192.015774,36.9851 C192.015774,37.2671 191.982359,38.1316 191.429042,38.8341" id="Fill-54" fill="#ED342E" mask="url(#mask-4)"></path>
                    </g>
                </g>
            </g>
        </g>
    </g>
</svg>